# Blender 3.4.1
# www.blender.org
o banana
v 0.063763 0.191413 0.425961
v 0.027130 0.200761 0.428402
v 0.018463 0.164735 0.436301
v 0.055096 0.155387 0.433860
v -0.074778 0.297649 -0.178277
v 0.071030 0.060401 -0.256786
v 0.002525 0.436521 -0.549537
v 0.075792 0.417825 -0.554420
v 0.057576 0.357384 -0.596332
v -0.015691 0.376081 -0.591449
v 0.123043 0.247169 -0.191461
v -0.013591 0.332271 -0.392196
v 0.059676 0.313575 -0.397079
v 0.041460 0.253135 -0.438991
v -0.031807 0.271831 -0.434108
v -0.126791 0.110881 -0.243602
v -0.072173 0.263179 -0.007201
v 0.125648 0.212699 -0.020385
v -0.123458 0.065539 -0.019975
v 0.074363 0.015059 -0.033159
v 0.083818 0.200449 0.398323
v 0.010551 0.219146 0.403206
v -0.006782 0.147094 0.419003
v 0.066485 0.128398 0.414120
v -0.038768 0.229124 0.212883
v 0.107766 0.191732 0.203117
v -0.073435 0.085021 0.244478
v 0.073099 0.047628 0.234712
v -0.289299 0.058546 0.202966
v -0.425128 0.112892 0.163432
v -0.229516 0.196978 0.187861
v -0.365344 0.251324 0.148327
v -0.346681 0.143158 0.371200
v -0.414595 0.170331 0.351433
v -0.384703 0.239547 0.343881
v -0.316789 0.212374 0.363648
v -0.201446 0.020626 -0.049346
v -0.384814 0.093993 -0.102716
v -0.134905 0.211192 -0.016000
v -0.318273 0.284559 -0.069371
v -0.307147 0.134872 -0.313365
v -0.135406 0.279807 -0.457302
v -0.067492 0.252634 -0.437535
v -0.057611 0.311387 -0.390717
v -0.125525 0.338560 -0.410484
v -0.075566 0.242255 -0.177171
v -0.055115 0.378268 -0.597810
v 0.012799 0.351095 -0.578043
v 0.022680 0.409848 -0.531226
v -0.045234 0.437021 -0.550993
v -0.123779 0.061505 -0.259995
v -0.258934 0.315622 -0.230541
v -0.360850 0.171681 0.386477
v -0.394807 0.185267 0.376594
v -0.379861 0.219876 0.372818
v -0.345904 0.206289 0.382701
v 0.485190 0.221224 0.339272
v 0.451259 0.225837 0.355481
v 0.450894 0.189206 0.365142
v 0.484825 0.184592 0.348933
v 0.118130 0.293537 -0.166318
v 0.253182 0.075133 -0.299626
v 0.032287 0.431835 -0.535912
v 0.100149 0.422608 -0.568330
v 0.075513 0.359293 -0.601881
v 0.007651 0.368520 -0.569462
v 0.301358 0.268624 -0.253848
v 0.089796 0.330363 -0.386647
v 0.157658 0.321136 -0.419065
v 0.133022 0.257820 -0.452616
v 0.065160 0.267047 -0.420197
v 0.069953 0.100046 -0.212095
v 0.188990 0.263996 -0.009576
v 0.372219 0.239083 -0.097107
v 0.162552 0.061140 -0.007185
v 0.345780 0.036228 -0.094716
v 0.492100 0.232070 0.306373
v 0.424237 0.241297 0.338792
v 0.423506 0.168033 0.358114
v 0.491369 0.158806 0.325695
v 0.306426 0.240061 0.181078
v 0.442151 0.221608 0.116240
v 0.304964 0.093534 0.219722
v 0.440689 0.075080 0.154885
vn -0.1050 -0.6156 0.7811
vn 0.8183 -0.0718 0.5703
vn 0.2483 0.8530 0.4591
vn 0.1127 0.1869 0.9759
vn 0.2550 0.9404 0.2251
vn 0.9377 -0.1518 -0.3127
vn -0.8954 0.4023 -0.1910
vn -0.2404 -0.7977 -0.5531
vn -0.9669 0.2467 0.0644
vn 0.9669 -0.2467 -0.0644
vn 0.0851 0.5503 -0.8306
vn 0.2404 0.7977 0.5531
vn -0.2216 -0.6876 -0.6914
vn -0.2383 -0.9642 0.1161
vn 0.2546 0.9487 0.1873
vn -0.2546 -0.9485 -0.1885
vn 0.2464 0.9691 -0.0130
vn -0.9261 0.2786 0.2546
vn 0.9703 -0.2053 0.1282
vn -0.6751 0.3093 0.6698
vn -0.9547 0.2360 0.1814
vn 0.9733 -0.2271 0.0322
vn -0.2022 -0.8958 0.3958
vn 0.2526 0.9612 0.1104
vn 0.3103 0.9274 0.2087
vn -0.4266 -0.8580 0.2860
vn 0.8719 -0.3379 0.3544
vn -0.9256 0.3489 -0.1469
vn 0.8963 -0.3586 0.2609
vn -0.8208 0.3991 0.4086
vn 0.8392 -0.3139 0.4441
vn -0.9186 0.3894 -0.0675
vn 0.3471 0.9334 0.0906
vn -0.2843 -0.9161 -0.2826
vn -0.8963 0.3586 -0.2609
vn 0.2847 0.9164 0.2814
vn -0.3738 -0.9275 0.0092
vn -0.0533 -0.6711 -0.7394
vn 0.1304 0.7754 0.6179
vn 0.4239 0.5198 -0.7417
vn -0.1304 -0.7754 -0.6179
vn -0.7251 0.4996 -0.4739
vn 0.9638 -0.2659 0.0193
vn 0.2713 0.9088 0.3170
vn -0.2026 0.1922 0.9602
vn 0.1759 0.8275 0.5331
vn 0.5634 -0.1548 0.8115
vn -0.4333 -0.5832 0.6871
vn 0.2751 -0.6042 0.7479
vn 0.9742 0.0485 0.2206
vn 0.2900 0.8891 0.3540
vn 0.4447 0.2243 0.8671
vn 0.1974 0.9707 0.1369
vn 0.7636 -0.0376 -0.6446
vn -0.9455 0.2788 0.1682
vn -0.3251 -0.8356 -0.4428
vn -0.8956 0.1218 0.4278
vn 0.8956 -0.1218 -0.4278
vn -0.3036 0.5357 -0.7880
vn 0.3251 0.8356 0.4428
vn -0.3737 -0.7276 -0.5753
vn -0.0513 -0.9837 0.1726
vn 0.1818 0.9780 0.1021
vn -0.1823 -0.9778 -0.1033
vn 0.0967 0.9921 -0.0800
vn -0.7910 0.1634 0.5896
vn 0.9654 -0.0754 -0.2495
vn -0.4090 0.2365 0.8813
vn -0.8392 0.1156 0.5314
vn 0.9351 -0.0990 -0.3402
vn 0.0778 -0.9041 0.4201
vn 0.1496 0.9882 0.0319
vn -0.1050 -0.6156 0.7810
vn 0.9471 -0.0679 -0.3138
vn -0.9271 0.3241 -0.1884
vn -0.9511 0.2640 0.1605
vn 0.9657 -0.2540 0.0534
vn 0.8545 -0.3633 0.3712
vn -0.9119 0.3758 -0.1648
vn -0.7647 0.4257 -0.4838
vn 0.9827 -0.1837 0.0232
vn 0.7610 0.0468 -0.6470
vn -0.9636 0.1972 0.1805
vn -0.8473 0.1433 0.5113
vn 0.9395 -0.1262 -0.3183
vt 0.375000 0.750000
vt 0.625000 0.750000
vt 0.625000 0.000000
vt 0.625000 1.000000
vt 0.875000 0.750000
vt 0.125000 0.750000
vt 0.375000 0.000000
vt 0.375000 1.000000
vt 0.625000 0.625000
vt 0.375000 0.125000
vt 0.125000 0.625000
vt 0.625000 0.500000
vt 0.375000 0.500000
vt 0.125000 0.500000
vt 0.375000 0.250000
vt 0.875000 0.500000
vt 0.625000 0.250000
vt 0.375000 0.625000
vt 0.625000 0.500000
vt 0.375000 0.500000
vt 0.125000 0.500000
vt 0.375000 0.250000
vt 0.875000 0.500000
vt 0.625000 0.250000
vt 0.875000 0.625000
vt 0.625000 0.125000
vt 0.625000 0.625000
vt 0.375000 0.625000
vt 0.625000 0.125000
vt 0.875000 0.625000
vt 0.375000 0.125000
vt 0.125000 0.625000
vt 0.375000 0.750000
vt 0.625000 0.750000
vt 0.875000 0.750000
vt 0.625000 0.000000
vt 0.125000 0.750000
vt 0.375000 0.000000
vt 0.625000 0.750000
vt 0.375000 0.750000
vt 0.625000 0.000000
vt 0.875000 0.750000
vt 0.125000 0.750000
vt 0.375000 0.000000
vt 0.125000 0.750000
vt 0.375000 0.000000
vt 0.875000 0.750000
vt 0.625000 0.000000
vt 0.375000 0.750000
vt 0.625000 0.750000
vt 0.125000 0.750000
vt 0.375000 0.000000
vt 0.875000 0.750000
vt 0.625000 0.000000
vt 0.625000 0.750000
vt 0.375000 0.750000
vt 0.125000 0.625000
vt 0.375000 0.125000
vt 0.875000 0.625000
vt 0.625000 0.125000
vt 0.375000 0.625000
vt 0.625000 0.625000
vt 0.625000 0.125000
vt 0.875000 0.625000
vt 0.625000 0.250000
vt 0.875000 0.500000
vt 0.375000 0.250000
vt 0.125000 0.500000
vt 0.375000 0.500000
vt 0.625000 0.500000
vt 0.375000 0.625000
vt 0.875000 0.500000
vt 0.625000 0.250000
vt 0.125000 0.500000
vt 0.375000 0.250000
vt 0.375000 0.500000
vt 0.625000 0.500000
vt 0.125000 0.625000
vt 0.375000 0.125000
vt 0.625000 0.625000
vt 0.125000 0.750000
vt 0.375000 1.000000
vt 0.375000 0.000000
vt 0.625000 0.000000
vt 0.875000 0.750000
vt 0.625000 1.000000
vt 0.625000 0.750000
vt 0.375000 0.750000
vt 0.375000 0.750000
vt 0.625000 0.750000
vt 0.625000 0.000000
vt 0.625000 1.000000
vt 0.875000 0.750000
vt 0.125000 0.750000
vt 0.375000 1.000000
vt 0.375000 0.000000
vt 0.625000 0.625000
vt 0.375000 0.125000
vt 0.125000 0.625000
vt 0.625000 0.500000
vt 0.375000 0.500000
vt 0.375000 0.250000
vt 0.125000 0.500000
vt 0.875000 0.500000
vt 0.625000 0.250000
vt 0.375000 0.625000
vt 0.625000 0.500000
vt 0.375000 0.500000
vt 0.125000 0.500000
vt 0.375000 0.250000
vt 0.875000 0.500000
vt 0.625000 0.250000
vt 0.875000 0.625000
vt 0.625000 0.125000
vt 0.625000 0.625000
vt 0.375000 0.625000
vt 0.625000 0.125000
vt 0.875000 0.625000
vt 0.375000 0.125000
vt 0.125000 0.625000
vt 0.375000 0.750000
vt 0.625000 0.750000
vt 0.875000 0.750000
vt 0.625000 0.000000
vt 0.125000 0.750000
vt 0.375000 0.000000
vt 0.625000 0.750000
vt 0.375000 0.750000
vt 0.625000 0.000000
vt 0.875000 0.750000
vt 0.125000 0.750000
vt 0.375000 0.000000
s 0
f 24/38/1 3/3/1 23/36/1
f 24/37/2 1/1/2 4/6/2
f 22/34/3 1/1/3 21/33/3
f 2/2/4 4/8/4 1/1/4
f 12/19/5 11/18/5 13/20/5
f 14/21/6 11/18/6 6/11/6
f 15/23/7 5/9/7 12/19/7
f 15/24/8 9/15/8 14/22/8
f 12/19/9 10/16/9 15/23/9
f 13/20/10 9/14/10 8/13/10
f 9/15/11 7/12/11 8/13/11
f 13/20/12 7/12/12 12/19/12
f 16/26/13 14/22/13 6/10/13
f 27/41/14 20/31/14 28/44/14
f 18/28/15 5/9/15 17/27/15
f 19/30/9 5/9/9 16/25/9
f 20/31/16 16/26/16 6/10/16
f 26/40/17 22/34/17 21/33/17
f 27/42/18 22/34/18 25/39/18
f 26/40/19 24/37/19 28/43/19
f 22/34/20 3/5/20 2/2/20
f 20/32/10 11/18/10 18/28/10
f 19/30/21 25/39/21 17/27/21
f 20/32/22 26/40/22 28/43/22
f 28/44/23 23/36/23 27/41/23
f 18/28/24 25/39/24 26/40/24
f 39/61/25 32/50/25 31/49/25
f 30/48/26 33/52/26 34/54/26
f 37/57/27 31/49/27 29/45/27
f 38/59/28 32/50/28 40/62/28
f 37/57/29 46/71/29 39/61/29
f 34/53/30 55/87/30 35/55/30
f 31/49/31 33/51/31 29/45/31
f 30/47/32 35/55/32 32/50/32
f 31/49/33 35/55/33 36/56/33
f 38/60/34 51/79/34 37/58/34
f 38/59/35 52/80/35 41/64/35
f 39/61/36 52/80/36 40/62/36
f 30/48/37 37/58/37 29/46/37
f 51/79/38 42/65/38 43/67/38
f 44/69/39 50/77/39 45/70/39
f 47/73/40 49/76/40 48/75/40
f 44/69/29 48/74/29 49/76/29
f 45/70/35 47/72/35 42/66/35
f 42/65/41 48/75/41 43/67/41
f 42/66/42 52/80/42 45/70/42
f 43/68/43 46/71/43 51/78/43
f 44/69/44 52/80/44 46/71/44
f 55/87/45 53/82/45 56/88/45
f 35/55/46 56/88/46 36/56/46
f 33/51/47 56/88/47 53/81/47
f 34/54/48 53/83/48 54/84/48
f 79/124/49 60/96/49 59/91/49
f 80/125/50 57/89/50 60/94/50
f 78/122/51 57/89/51 77/121/51
f 57/89/52 59/92/52 60/95/52
f 68/107/53 67/106/53 69/108/53
f 70/109/54 67/106/54 62/99/54
f 71/111/55 61/97/55 68/107/55
f 70/110/56 66/105/56 65/102/56
f 68/107/57 66/104/57 71/111/57
f 70/109/58 64/101/58 69/108/58
f 66/105/59 64/101/59 65/102/59
f 69/108/60 63/100/60 68/107/60
f 72/114/61 70/110/61 62/98/61
f 84/132/62 75/117/62 76/119/62
f 74/116/63 61/97/63 73/115/63
f 75/118/57 61/97/57 72/113/57
f 75/117/64 62/98/64 76/119/64
f 82/128/65 78/122/65 77/121/65
f 83/130/66 78/122/66 81/127/66
f 82/128/67 80/125/67 84/131/67
f 79/123/68 58/90/68 78/122/68
f 76/120/58 67/106/58 74/116/58
f 75/118/69 81/127/69 73/115/69
f 76/120/70 82/128/70 84/131/70
f 84/132/71 79/124/71 83/129/71
f 74/116/72 81/127/72 82/128/72
f 24/38/73 4/7/73 3/3/73
f 24/37/2 21/33/2 1/1/2
f 22/34/3 2/2/3 1/1/3
f 2/2/4 3/4/4 4/8/4
f 12/19/5 5/9/5 11/18/5
f 14/21/74 13/20/74 11/18/74
f 15/23/75 16/25/75 5/9/75
f 15/24/8 10/17/8 9/15/8
f 12/19/9 7/12/9 10/16/9
f 13/20/10 14/21/10 9/14/10
f 9/15/11 10/17/11 7/12/11
f 13/20/12 8/13/12 7/12/12
f 16/26/13 15/24/13 14/22/13
f 27/41/14 19/29/14 20/31/14
f 18/28/15 11/18/15 5/9/15
f 19/30/9 17/27/9 5/9/9
f 20/31/16 19/29/16 16/26/16
f 26/40/17 25/39/17 22/34/17
f 27/42/18 23/35/18 22/34/18
f 26/40/19 21/33/19 24/37/19
f 22/34/20 23/35/20 3/5/20
f 20/32/10 6/11/10 11/18/10
f 19/30/76 27/42/76 25/39/76
f 20/32/77 18/28/77 26/40/77
f 28/44/23 24/38/23 23/36/23
f 18/28/24 17/27/24 25/39/24
f 39/61/25 40/62/25 32/50/25
f 30/48/26 29/46/26 33/52/26
f 37/57/78 39/61/78 31/49/78
f 38/59/79 30/47/79 32/50/79
f 37/57/29 51/78/29 46/71/29
f 34/53/30 54/85/30 55/87/30
f 31/49/31 36/56/31 33/51/31
f 30/47/32 34/53/32 35/55/32
f 31/49/33 32/50/33 35/55/33
f 38/60/34 41/63/34 51/79/34
f 38/59/35 40/62/35 52/80/35
f 39/61/36 46/71/36 52/80/36
f 30/48/37 38/60/37 37/58/37
f 51/79/38 41/63/38 42/65/38
f 44/69/39 49/76/39 50/77/39
f 47/73/40 50/77/40 49/76/40
f 44/69/29 43/68/29 48/74/29
f 45/70/35 50/77/35 47/72/35
f 42/65/41 47/73/41 48/75/41
f 42/66/80 41/64/80 52/80/80
f 43/68/81 44/69/81 46/71/81
f 44/69/44 45/70/44 52/80/44
f 55/87/45 54/86/45 53/82/45
f 35/55/46 55/87/46 56/88/46
f 33/51/47 36/56/47 56/88/47
f 34/54/48 33/52/48 53/83/48
f 79/124/49 80/126/49 60/96/49
f 80/125/50 77/121/50 57/89/50
f 78/122/51 58/90/51 57/89/51
f 57/89/52 58/90/52 59/92/52
f 68/107/53 61/97/53 67/106/53
f 70/109/82 69/108/82 67/106/82
f 71/111/83 72/113/83 61/97/83
f 70/110/56 71/112/56 66/105/56
f 68/107/57 63/100/57 66/104/57
f 70/109/58 65/103/58 64/101/58
f 66/105/59 63/100/59 64/101/59
f 69/108/60 64/101/60 63/100/60
f 72/114/61 71/112/61 70/110/61
f 84/132/62 83/129/62 75/117/62
f 74/116/63 67/106/63 61/97/63
f 75/118/57 73/115/57 61/97/57
f 75/117/64 72/114/64 62/98/64
f 82/128/65 81/127/65 78/122/65
f 83/130/66 79/123/66 78/122/66
f 82/128/67 77/121/67 80/125/67
f 79/123/68 59/93/68 58/90/68
f 76/120/58 62/99/58 67/106/58
f 75/118/84 83/130/84 81/127/84
f 76/120/85 74/116/85 82/128/85
f 84/132/71 80/126/71 79/124/71
f 74/116/72 73/115/72 81/127/72
