# Blender 3.4.1
# www.blender.org
o blueberry
v 0.104888 -0.403675 -0.337949
v -0.167734 -0.343041 0.130342
v -0.336227 -0.083761 -0.318744
v 0.104888 0.076487 -0.596301
v 0.546002 -0.083761 -0.318743
v 0.377509 -0.343041 0.130342
v -0.336227 0.174597 0.161412
v -0.167734 0.433876 -0.287674
v 0.377509 0.433876 -0.287673
v 0.546001 0.174597 0.161413
v 0.104887 0.014349 0.438970
v -0.104877 0.342381 0.171485
v 0.104887 0.266179 0.303472
v 0.314652 0.342381 0.171485
v 0.234528 0.465677 -0.042070
v -0.024753 0.465677 -0.042070
v -0.024753 0.465677 -0.042070
v -0.104877 0.342381 0.171485
v 0.104887 0.266179 0.303472
v 0.314652 0.342381 0.171485
v 0.234528 0.465677 -0.042070
vn -0.5774 -0.7820 -0.2349
vn -0.0000 -0.9917 0.1284
vn -0.3568 -0.4426 -0.8227
vn 0.3568 -0.4426 -0.8227
vn 0.5774 -0.7820 -0.2349
vn -0.0000 -0.6536 0.7569
vn -0.9342 -0.3142 0.1691
vn -0.5774 0.2349 -0.7820
vn 0.5774 0.2349 -0.7820
vn 0.9342 -0.3142 0.1691
vn -0.5774 -0.2349 0.7820
vn -0.9342 0.3142 -0.1691
vn -0.0000 0.6536 -0.7569
vn 0.9342 0.3142 -0.1691
vn 0.5774 -0.2349 0.7820
vn 0.3568 0.4426 0.8227
vn -0.0000 0.9917 -0.1284
vn 0.5774 0.7820 0.2349
vn -0.3568 0.4426 0.8226
vn 0.5000 0.8660 -0.0000
vn -0.5774 0.7820 0.2349
vn -0.0000 0.8660 0.5000
vt 0.181819 0.000000
vt 0.363637 0.000000
vt 0.909091 0.000000
vt 0.727273 0.000000
vt 0.545455 0.000000
vt 0.272728 0.157461
vt 1.000000 0.157461
vt 0.090910 0.157461
vt 0.818182 0.157461
vt 0.636364 0.157461
vt 0.454546 0.157461
vt 0.181819 0.314921
vt 0.000000 0.314921
vt 0.909091 0.314921
vt 0.727273 0.314921
vt 0.545455 0.314921
vt 0.363637 0.314921
vt 0.134140 0.397504
vt 0.229498 0.397504
vt 0.411316 0.397505
vt 0.315958 0.397505
vt 0.497776 0.397504
vt 0.593134 0.397504
vt 0.774952 0.397504
vt 0.679594 0.397504
vt 0.861412 0.397504
vt 0.047679 0.397504
vt 0.047679 0.397504
vt 0.861412 0.397504
vt 0.229498 0.397504
vt 0.134140 0.397504
vt 0.411316 0.397505
vt 0.315958 0.397505
vt 0.593134 0.397504
vt 0.497776 0.397504
vt 0.774952 0.397504
vt 0.679594 0.397504
s 0
f 1/1/1 2/6/1 3/8/1
f 2/6/2 1/2/2 6/11/2
f 1/3/3 3/7/3 4/9/3
f 1/4/4 4/9/4 5/10/4
f 1/5/5 5/10/5 6/11/5
f 2/6/6 6/11/6 11/17/6
f 3/8/7 2/6/7 7/12/7
f 4/9/8 3/7/8 8/14/8
f 5/10/9 4/9/9 9/15/9
f 6/11/10 5/10/10 10/16/10
f 2/6/11 11/17/11 7/12/11
f 3/8/12 7/12/12 8/13/12
f 4/9/13 8/14/13 9/15/13
f 5/10/14 9/15/14 10/16/14
f 6/11/15 10/16/15 11/17/15
f 10/16/16 13/20/16 11/17/16
f 8/14/17 15/24/17 9/15/17
f 10/16/18 15/25/18 14/23/18
f 7/12/19 13/21/19 12/19/19
f 15/24/20 17/29/20 21/36/20
f 7/12/21 16/27/21 8/13/21
f 19/33/22 21/37/22 17/29/22
f 13/20/20 20/35/20 19/32/20
f 16/27/20 18/31/20 17/28/20
f 14/23/20 21/37/20 20/34/20
f 12/19/20 19/33/20 18/30/20
f 10/16/16 14/22/16 13/20/16
f 8/14/17 16/26/17 15/24/17
f 10/16/18 9/15/18 15/25/18
f 7/12/19 11/17/19 13/21/19
f 15/24/20 16/26/20 17/29/20
f 7/12/21 12/18/21 16/27/21
f 17/29/22 18/31/22 19/33/22
f 19/33/22 20/35/22 21/37/22
f 13/20/20 14/22/20 20/35/20
f 16/27/20 12/18/20 18/31/20
f 14/23/20 15/25/20 21/37/20
f 12/19/20 13/21/20 19/33/20
