# Blender v2.93.6 OBJ File: 'camera-prop.blend'
# www.blender.org
mtllib camera-prop.mtl
o camera-prop
v -0.500000 -0.500000 1.000000
v -0.500000 0.500000 1.000000
v 0.500000 -0.500000 1.000000
v 0.500000 0.500000 1.000000
v 0.000000 0.000000 0.000000
vt 0.375000 0.000000
vt 0.625000 0.000000
vt 0.500000 0.375000
vt 0.625000 0.750000
vt 0.375000 0.750000
vt 0.375000 1.000000
vt 0.125000 0.750000
vt 0.875000 0.750000
vt 0.625000 1.000000
vn -0.8944 0.0000 -0.4472
vn 0.8944 0.0000 -0.4472
vn 0.0000 0.0000 1.0000
vn 0.0000 -0.8944 -0.4472
vn 0.0000 0.8944 -0.4472
usemtl None
s off
f 1/1/1 2/2/1 5/3/1
f 5/3/2 4/4/2 3/5/2
f 4/4/3 1/6/3 3/5/3
f 5/3/4 3/5/4 1/7/4
f 5/3/5 2/8/5 4/4/5
f 4/4/3 2/9/3 1/6/3
