# Blender 3.4.1
# www.blender.org
o cherry__stalk
v -0.216510 0.506798 -0.120910
v -0.049551 0.770764 -0.136494
v -0.180655 0.481597 -0.163640
v -0.013697 0.745563 -0.179224
v -0.176962 0.489489 -0.077518
v -0.020128 0.739120 -0.093142
v -0.141108 0.464288 -0.120247
v 0.015727 0.713919 -0.135872
v 0.150147 1.000440 -0.104383
v 0.186002 0.975239 -0.147113
v 0.215425 0.943595 -0.103761
v 0.179571 0.968796 -0.061031
v 0.150147 1.000440 -0.104383
v 0.186002 0.975239 -0.147113
v 0.215425 0.943595 -0.103761
v 0.179571 0.968796 -0.061031
v 0.093648 0.436307 0.180916
v 0.090369 0.704447 0.020025
v 0.129502 0.411106 0.138187
v 0.126224 0.679246 -0.022705
v 0.143081 0.458876 0.209085
v 0.138950 0.711614 0.056562
v 0.178935 0.433675 0.166355
v 0.174805 0.686414 0.013832
v 0.140568 0.981035 -0.100976
v 0.176423 0.955834 -0.143706
v 0.225004 0.963001 -0.107168
v 0.189149 0.988201 -0.064438
v 0.140568 0.981035 -0.100976
v 0.176423 0.955834 -0.143706
v 0.225004 0.963001 -0.107168
v 0.189149 0.988201 -0.064438
vn -0.6098 0.3435 -0.7143
vn 0.5858 -0.4117 -0.6981
vn 0.6121 -0.3399 0.7140
vn -0.5858 0.4117 0.6981
vn -0.4893 -0.8663 0.1004
vn -0.4807 0.5170 -0.7083
vn 0.4807 -0.5170 0.7083
vn -0.0000 1.0000 -0.0000
vn 0.6525 0.7505 0.1049
vn -0.8104 -0.3087 -0.4980
vn 0.8104 0.3124 0.4957
vn 0.0679 -0.8334 0.5485
vn -0.7937 -0.1171 -0.5969
vn 0.7937 0.1171 0.5969
vn 0.1640 0.9038 -0.3954
vn 0.8103 0.3124 0.4957
vt 0.375000 0.000000
vt 0.375000 1.000000
vt 0.125000 0.750000
vt 0.625000 1.000000
vt 0.625000 0.000000
vt 0.125000 0.500000
vt 0.375000 0.250000
vt 0.625000 0.250000
vt 0.375000 0.750000
vt 0.625000 0.750000
vt 0.375000 0.500000
vt 0.625000 0.500000
vt 0.625000 1.000000
vt 0.625000 0.000000
vt 0.625000 0.250000
vt 0.625000 0.500000
vt 0.625000 0.750000
vt 0.625000 1.000000
vt 0.875000 0.750000
vt 0.625000 0.000000
vt 0.875000 0.500000
vt 0.625000 0.250000
vt 0.625000 0.500000
vt 0.625000 0.750000
vt 0.375000 0.000000
vt 0.375000 1.000000
vt 0.125000 0.750000
vt 0.625000 0.000000
vt 0.625000 1.000000
vt 0.125000 0.500000
vt 0.375000 0.250000
vt 0.625000 0.250000
vt 0.375000 0.750000
vt 0.625000 0.750000
vt 0.375000 0.500000
vt 0.625000 0.500000
vt 0.625000 1.000000
vt 0.625000 0.000000
vt 0.625000 0.250000
vt 0.625000 0.500000
vt 0.625000 0.750000
vt 0.625000 1.000000
vt 0.875000 0.750000
vt 0.625000 0.000000
vt 0.875000 0.500000
vt 0.625000 0.250000
vt 0.625000 0.500000
vt 0.625000 0.750000
s 0
f 1/1/1 4/8/1 3/7/1
f 3/7/2 8/12/2 7/11/2
f 7/11/3 6/10/3 5/9/3
f 6/10/4 1/2/4 5/9/4
f 7/11/5 1/3/5 3/6/5
f 2/5/6 10/15/6 4/8/6
f 6/10/7 11/16/7 12/17/7
f 4/8/2 11/16/2 8/12/2
f 6/10/4 9/13/4 2/4/4
f 9/13/8 16/24/8 13/18/8
f 15/23/9 13/19/9 16/24/9
f 11/16/8 14/22/8 15/23/8
f 12/17/8 15/23/8 16/24/8
f 10/15/8 13/20/8 14/22/8
f 18/28/10 19/31/10 17/25/10
f 19/31/2 24/36/2 23/35/2
f 23/35/11 22/34/11 21/33/11
f 22/34/4 17/26/4 21/33/4
f 23/35/12 17/27/12 19/30/12
f 18/28/13 26/39/13 20/32/13
f 24/36/14 28/41/14 22/34/14
f 24/36/2 26/39/2 27/40/2
f 18/29/4 28/41/4 25/37/4
f 25/37/8 32/48/8 29/42/8
f 30/45/15 32/48/15 31/47/15
f 27/40/8 30/46/8 31/47/8
f 28/41/8 31/47/8 32/48/8
f 26/39/8 29/44/8 30/46/8
f 1/1/1 2/5/1 4/8/1
f 3/7/2 4/8/2 8/12/2
f 7/11/3 8/12/3 6/10/3
f 6/10/4 2/4/4 1/2/4
f 7/11/5 5/9/5 1/3/5
f 2/5/6 9/14/6 10/15/6
f 6/10/7 8/12/7 11/16/7
f 4/8/2 10/15/2 11/16/2
f 6/10/4 12/17/4 9/13/4
f 9/13/8 12/17/8 16/24/8
f 15/23/9 14/21/9 13/19/9
f 11/16/8 10/15/8 14/22/8
f 12/17/8 11/16/8 15/23/8
f 10/15/8 9/14/8 13/20/8
f 18/28/10 20/32/10 19/31/10
f 19/31/2 20/32/2 24/36/2
f 23/35/16 24/36/16 22/34/16
f 22/34/4 18/29/4 17/26/4
f 23/35/12 21/33/12 17/27/12
f 18/28/13 25/38/13 26/39/13
f 24/36/14 27/40/14 28/41/14
f 24/36/2 20/32/2 26/39/2
f 18/29/4 22/34/4 28/41/4
f 25/37/8 28/41/8 32/48/8
f 30/45/15 29/43/15 32/48/15
f 27/40/8 26/39/8 30/46/8
f 28/41/8 27/40/8 31/47/8
f 26/39/8 25/38/8 29/44/8
o cherry__body
v 0.172677 -0.011346 0.467402
v 0.245785 0.277541 0.588841
v -0.059626 0.205636 0.517420
v -0.059887 0.028709 0.248635
v 0.245368 -0.008731 0.153942
v 0.434280 0.145056 0.364202
v 0.058403 0.496139 0.445128
v -0.130509 0.342352 0.234869
v 0.057986 0.209867 0.010230
v 0.363396 0.281771 0.081651
v 0.363658 0.458699 0.350436
v 0.131094 0.498753 0.131669
v -0.440860 0.021562 -0.066824
v -0.309249 0.171743 0.185509
v -0.565232 0.299226 0.037970
v -0.534944 0.245530 -0.277859
v -0.260239 0.084859 -0.325507
v -0.120754 0.039258 -0.039130
v -0.321994 0.488529 0.130425
v -0.461478 0.534130 -0.155951
v -0.272984 0.401645 -0.380591
v -0.017001 0.274162 -0.233052
v -0.047288 0.327859 0.082777
v -0.141373 0.551826 -0.128258
vn -0.1327 -0.3554 0.9253
vn 0.5443 -0.4384 0.7152
vn -0.5517 -0.6964 0.4590
vn -0.1336 -0.9903 -0.0392
vn 0.5437 -0.8308 0.1192
vn 0.8060 0.2058 0.5549
vn -0.2893 0.3402 0.8947
vn -0.9672 -0.2116 0.1402
vn -0.2908 -0.6871 -0.6659
vn 0.8051 -0.4290 -0.4096
vn 0.2908 0.6871 0.6659
vn -0.8051 0.4290 0.4096
vn -0.8060 -0.2058 -0.5549
vn 0.2893 -0.3402 -0.8947
vn 0.9672 0.2116 -0.1402
vn 0.1336 0.9903 0.0392
vn -0.5437 0.8308 -0.1192
vn -0.5443 0.4384 -0.7152
vn 0.1327 0.3554 -0.9253
vn 0.5517 0.6964 -0.4590
vn -0.6058 -0.5038 0.6158
vn 0.0034 -0.8601 0.5101
vn -0.9152 -0.4026 -0.0193
vn -0.4971 -0.6965 -0.5175
vn 0.0706 -0.9792 -0.1903
vn 0.5428 -0.4403 0.7152
vn -0.4429 0.1363 0.8862
vn -0.9434 0.2999 -0.1415
vn -0.2670 -0.1755 -0.9476
vn 0.6515 -0.6330 -0.4181
vn 0.2670 0.1755 0.9476
vn -0.6515 0.6330 0.4181
vn -0.5428 0.4403 -0.7152
vn 0.4429 -0.1363 -0.8862
vn 0.9434 -0.2999 0.1415
vn 0.4971 0.6965 0.5175
vn -0.0706 0.9792 0.1903
vn -0.0034 0.8601 -0.5101
vn 0.6058 0.5038 -0.6158
vn 0.9152 0.4026 0.0193
vt 0.181819 0.000000
vt 0.363637 0.000000
vt 0.909091 0.000000
vt 0.727273 0.000000
vt 0.545455 0.000000
vt 0.272728 0.157461
vt 1.000000 0.157461
vt 0.090910 0.157461
vt 0.818182 0.157461
vt 0.636364 0.157461
vt 0.454546 0.157461
vt 0.181819 0.314921
vt 0.000000 0.314921
vt 0.909091 0.314921
vt 0.727273 0.314921
vt 0.545455 0.314921
vt 0.363637 0.314921
vt 0.272728 0.472382
vt 0.090910 0.472382
vt 0.818182 0.472382
vt 0.636364 0.472382
vt 0.454546 0.472382
vt 0.181819 0.000000
vt 0.363637 0.000000
vt 0.909091 0.000000
vt 0.727273 0.000000
vt 0.545455 0.000000
vt 0.272728 0.157461
vt 1.000000 0.157461
vt 0.090910 0.157461
vt 0.818182 0.157461
vt 0.636364 0.157461
vt 0.454546 0.157461
vt 0.181819 0.314921
vt 0.000000 0.314921
vt 0.909091 0.314921
vt 0.727273 0.314921
vt 0.545455 0.314921
vt 0.363637 0.314921
vt 0.272728 0.472382
vt 0.090910 0.472382
vt 0.818182 0.472382
vt 0.636364 0.472382
vt 0.454546 0.472382
s 0
f 33/49/17 34/54/17 35/56/17
f 34/54/18 33/50/18 38/59/18
f 33/51/19 35/55/19 36/57/19
f 33/52/20 36/57/20 37/58/20
f 33/53/21 37/58/21 38/59/21
f 34/54/22 38/59/22 43/65/22
f 35/56/23 34/54/23 39/60/23
f 36/57/24 35/55/24 40/62/24
f 37/58/25 36/57/25 41/63/25
f 38/59/26 37/58/26 42/64/26
f 34/54/27 43/65/27 39/60/27
f 35/56/28 39/60/28 40/61/28
f 36/57/29 40/62/29 41/63/29
f 37/58/30 41/63/30 42/64/30
f 38/59/31 42/64/31 43/65/31
f 39/60/32 43/65/32 44/66/32
f 40/61/33 39/60/33 44/67/33
f 41/63/34 40/62/34 44/68/34
f 42/64/35 41/63/35 44/69/35
f 43/65/36 42/64/36 44/70/36
f 45/71/37 46/76/37 47/78/37
f 46/76/38 45/72/38 50/81/38
f 45/73/39 47/77/39 48/79/39
f 45/74/40 48/79/40 49/80/40
f 45/75/41 49/80/41 50/81/41
f 46/76/42 50/81/42 55/87/42
f 47/78/43 46/76/43 51/82/43
f 48/79/44 47/77/44 52/84/44
f 49/80/45 48/79/45 53/85/45
f 50/81/46 49/80/46 54/86/46
f 46/76/47 55/87/47 51/82/47
f 47/78/48 51/82/48 52/83/48
f 48/79/49 52/84/49 53/85/49
f 49/80/50 53/85/50 54/86/50
f 50/81/51 54/86/51 55/87/51
f 51/82/52 55/87/52 56/88/52
f 52/83/53 51/82/53 56/89/53
f 53/85/54 52/84/54 56/90/54
f 54/86/55 53/85/55 56/91/55
f 55/87/56 54/86/56 56/92/56
