# Blender 3.4.1
# www.blender.org
o cherry__body
v 0.418404 -0.027491 1.132535
v 0.595548 0.672493 1.426787
v -0.144476 0.498266 1.253730
v -0.145109 0.069562 0.602453
v 0.594536 -0.021155 0.373009
v 1.052278 0.351476 0.882476
v 0.141514 1.202166 1.078565
v -0.316228 0.829534 0.569099
v 0.140502 0.508517 0.024788
v 0.880525 0.682745 0.197845
v 0.881159 1.111448 0.849122
v 0.317646 1.208501 0.319040
v -1.068222 0.052246 -0.161917
v -0.749323 0.416141 0.449496
v -1.369581 0.725038 0.092003
v -1.296193 0.594929 -0.673265
v -0.630569 0.205616 -0.788718
v -0.292593 0.095123 -0.094815
v -0.780205 1.183728 0.316026
v -1.118182 1.294221 -0.377877
v -0.661451 0.973204 -0.922187
v -0.041193 0.664307 -0.564694
v -0.114581 0.794416 0.200573
v -0.342552 1.337098 -0.310774
vn -0.1327 -0.3554 0.9253
vn 0.5443 -0.4384 0.7152
vn -0.5517 -0.6964 0.4590
vn -0.1336 -0.9903 -0.0392
vn 0.5437 -0.8308 0.1192
vn 0.8060 0.2058 0.5549
vn -0.2893 0.3402 0.8947
vn -0.9672 -0.2116 0.1402
vn -0.2908 -0.6871 -0.6659
vn 0.8051 -0.4290 -0.4096
vn 0.2908 0.6871 0.6659
vn -0.8051 0.4290 0.4096
vn -0.8060 -0.2058 -0.5549
vn 0.2893 -0.3402 -0.8947
vn 0.9672 0.2116 -0.1402
vn 0.1336 0.9903 0.0392
vn -0.5437 0.8308 -0.1192
vn -0.5443 0.4384 -0.7152
vn 0.1327 0.3554 -0.9253
vn 0.5517 0.6964 -0.4590
vn -0.6058 -0.5038 0.6158
vn 0.0034 -0.8601 0.5101
vn -0.9152 -0.4026 -0.0193
vn -0.4971 -0.6965 -0.5175
vn 0.0706 -0.9792 -0.1903
vn 0.5428 -0.4403 0.7152
vn -0.4429 0.1363 0.8862
vn -0.9434 0.2999 -0.1415
vn -0.2670 -0.1755 -0.9476
vn 0.6515 -0.6330 -0.4181
vn 0.2670 0.1755 0.9476
vn -0.6515 0.6330 0.4181
vn -0.5428 0.4403 -0.7152
vn 0.4429 -0.1363 -0.8862
vn 0.9434 -0.2999 0.1415
vn 0.4971 0.6965 0.5175
vn -0.0706 0.9792 0.1903
vn -0.0034 0.8601 -0.5101
vn 0.6058 0.5038 -0.6158
vn 0.9152 0.4026 0.0193
vt 0.181819 0.000000
vt 0.363637 0.000000
vt 0.909091 0.000000
vt 0.727273 0.000000
vt 0.545455 0.000000
vt 0.272728 0.157461
vt 1.000000 0.157461
vt 0.090910 0.157461
vt 0.818182 0.157461
vt 0.636364 0.157461
vt 0.454546 0.157461
vt 0.181819 0.314921
vt 0.000000 0.314921
vt 0.909091 0.314921
vt 0.727273 0.314921
vt 0.545455 0.314921
vt 0.363637 0.314921
vt 0.272728 0.472382
vt 0.090910 0.472382
vt 0.818182 0.472382
vt 0.636364 0.472382
vt 0.454546 0.472382
vt 0.181819 0.000000
vt 0.363637 0.000000
vt 0.909091 0.000000
vt 0.727273 0.000000
vt 0.545455 0.000000
vt 0.272728 0.157461
vt 1.000000 0.157461
vt 0.090910 0.157461
vt 0.818182 0.157461
vt 0.636364 0.157461
vt 0.454546 0.157461
vt 0.181819 0.314921
vt 0.000000 0.314921
vt 0.909091 0.314921
vt 0.727273 0.314921
vt 0.545455 0.314921
vt 0.363637 0.314921
vt 0.272728 0.472382
vt 0.090910 0.472382
vt 0.818182 0.472382
vt 0.636364 0.472382
vt 0.454546 0.472382
s 0
f 1/1/1 2/6/1 3/8/1
f 2/6/2 1/2/2 6/11/2
f 1/3/3 3/7/3 4/9/3
f 1/4/4 4/9/4 5/10/4
f 1/5/5 5/10/5 6/11/5
f 2/6/6 6/11/6 11/17/6
f 3/8/7 2/6/7 7/12/7
f 4/9/8 3/7/8 8/14/8
f 5/10/9 4/9/9 9/15/9
f 6/11/10 5/10/10 10/16/10
f 2/6/11 11/17/11 7/12/11
f 3/8/12 7/12/12 8/13/12
f 4/9/13 8/14/13 9/15/13
f 5/10/14 9/15/14 10/16/14
f 6/11/15 10/16/15 11/17/15
f 7/12/16 11/17/16 12/18/16
f 8/13/17 7/12/17 12/19/17
f 9/15/18 8/14/18 12/20/18
f 10/16/19 9/15/19 12/21/19
f 11/17/20 10/16/20 12/22/20
f 13/23/21 14/28/21 15/30/21
f 14/28/22 13/24/22 18/33/22
f 13/25/23 15/29/23 16/31/23
f 13/26/24 16/31/24 17/32/24
f 13/27/25 17/32/25 18/33/25
f 14/28/26 18/33/26 23/39/26
f 15/30/27 14/28/27 19/34/27
f 16/31/28 15/29/28 20/36/28
f 17/32/29 16/31/29 21/37/29
f 18/33/30 17/32/30 22/38/30
f 14/28/31 23/39/31 19/34/31
f 15/30/32 19/34/32 20/35/32
f 16/31/33 20/36/33 21/37/33
f 17/32/34 21/37/34 22/38/34
f 18/33/35 22/38/35 23/39/35
f 19/34/36 23/39/36 24/40/36
f 20/35/37 19/34/37 24/41/37
f 21/37/38 20/36/38 24/42/38
f 22/38/39 21/37/39 24/43/39
f 23/39/40 22/38/40 24/44/40
