# Blender 3.4.1
# www.blender.org
o cherry__stalk
v -0.216510 0.506798 -0.120910
v -0.049551 0.770764 -0.136494
v -0.180655 0.481597 -0.163640
v -0.013697 0.745563 -0.179224
v -0.176962 0.489489 -0.077518
v -0.020128 0.739120 -0.093142
v -0.141108 0.464288 -0.120247
v 0.015727 0.713919 -0.135872
v 0.150147 1.000440 -0.104383
v 0.186002 0.975239 -0.147113
v 0.215425 0.943595 -0.103761
v 0.179571 0.968796 -0.061031
v 0.150147 1.000440 -0.104383
v 0.186002 0.975239 -0.147113
v 0.215425 0.943595 -0.103761
v 0.179571 0.968796 -0.061031
v 0.093648 0.436307 0.180916
v 0.090369 0.704447 0.020025
v 0.129502 0.411106 0.138187
v 0.126224 0.679246 -0.022705
v 0.143081 0.458876 0.209085
v 0.138950 0.711614 0.056562
v 0.178935 0.433675 0.166355
v 0.174805 0.686414 0.013832
v 0.140568 0.981035 -0.100976
v 0.176423 0.955834 -0.143706
v 0.225004 0.963001 -0.107168
v 0.189149 0.988201 -0.064438
v 0.140568 0.981035 -0.100976
v 0.176423 0.955834 -0.143706
v 0.225004 0.963001 -0.107168
v 0.189149 0.988201 -0.064438
vn -0.6098 0.3435 -0.7143
vn 0.5858 -0.4117 -0.6981
vn 0.6121 -0.3399 0.7140
vn -0.5858 0.4117 0.6981
vn -0.4893 -0.8663 0.1004
vn -0.4807 0.5170 -0.7083
vn 0.4807 -0.5170 0.7083
vn -0.0000 1.0000 -0.0000
vn 0.6525 0.7505 0.1049
vn -0.8104 -0.3087 -0.4980
vn 0.8104 0.3124 0.4957
vn 0.0679 -0.8334 0.5485
vn -0.7937 -0.1171 -0.5969
vn 0.7937 0.1171 0.5969
vn 0.1640 0.9038 -0.3954
vn 0.8103 0.3124 0.4957
vt 0.375000 0.000000
vt 0.375000 1.000000
vt 0.125000 0.750000
vt 0.625000 1.000000
vt 0.625000 0.000000
vt 0.125000 0.500000
vt 0.375000 0.250000
vt 0.625000 0.250000
vt 0.375000 0.750000
vt 0.625000 0.750000
vt 0.375000 0.500000
vt 0.625000 0.500000
vt 0.625000 1.000000
vt 0.625000 0.000000
vt 0.625000 0.250000
vt 0.625000 0.500000
vt 0.625000 0.750000
vt 0.625000 1.000000
vt 0.875000 0.750000
vt 0.625000 0.000000
vt 0.875000 0.500000
vt 0.625000 0.250000
vt 0.625000 0.500000
vt 0.625000 0.750000
vt 0.375000 0.000000
vt 0.375000 1.000000
vt 0.125000 0.750000
vt 0.625000 0.000000
vt 0.625000 1.000000
vt 0.125000 0.500000
vt 0.375000 0.250000
vt 0.625000 0.250000
vt 0.375000 0.750000
vt 0.625000 0.750000
vt 0.375000 0.500000
vt 0.625000 0.500000
vt 0.625000 1.000000
vt 0.625000 0.000000
vt 0.625000 0.250000
vt 0.625000 0.500000
vt 0.625000 0.750000
vt 0.625000 1.000000
vt 0.875000 0.750000
vt 0.625000 0.000000
vt 0.875000 0.500000
vt 0.625000 0.250000
vt 0.625000 0.500000
vt 0.625000 0.750000
s 0
f 1/1/1 4/8/1 3/7/1
f 3/7/2 8/12/2 7/11/2
f 7/11/3 6/10/3 5/9/3
f 6/10/4 1/2/4 5/9/4
f 7/11/5 1/3/5 3/6/5
f 2/5/6 10/15/6 4/8/6
f 6/10/7 11/16/7 12/17/7
f 4/8/2 11/16/2 8/12/2
f 6/10/4 9/13/4 2/4/4
f 9/13/8 16/24/8 13/18/8
f 15/23/9 13/19/9 16/24/9
f 11/16/8 14/22/8 15/23/8
f 12/17/8 15/23/8 16/24/8
f 10/15/8 13/20/8 14/22/8
f 18/28/10 19/31/10 17/25/10
f 19/31/2 24/36/2 23/35/2
f 23/35/11 22/34/11 21/33/11
f 22/34/4 17/26/4 21/33/4
f 23/35/12 17/27/12 19/30/12
f 18/28/13 26/39/13 20/32/13
f 24/36/14 28/41/14 22/34/14
f 24/36/2 26/39/2 27/40/2
f 18/29/4 28/41/4 25/37/4
f 25/37/8 32/48/8 29/42/8
f 30/45/15 32/48/15 31/47/15
f 27/40/8 30/46/8 31/47/8
f 28/41/8 31/47/8 32/48/8
f 26/39/8 29/44/8 30/46/8
f 1/1/1 2/5/1 4/8/1
f 3/7/2 4/8/2 8/12/2
f 7/11/3 8/12/3 6/10/3
f 6/10/4 2/4/4 1/2/4
f 7/11/5 5/9/5 1/3/5
f 2/5/6 9/14/6 10/15/6
f 6/10/7 8/12/7 11/16/7
f 4/8/2 10/15/2 11/16/2
f 6/10/4 12/17/4 9/13/4
f 9/13/8 12/17/8 16/24/8
f 15/23/9 14/21/9 13/19/9
f 11/16/8 10/15/8 14/22/8
f 12/17/8 11/16/8 15/23/8
f 10/15/8 9/14/8 13/20/8
f 18/28/10 20/32/10 19/31/10
f 19/31/2 20/32/2 24/36/2
f 23/35/16 24/36/16 22/34/16
f 22/34/4 18/29/4 17/26/4
f 23/35/12 21/33/12 17/27/12
f 18/28/13 25/38/13 26/39/13
f 24/36/14 27/40/14 28/41/14
f 24/36/2 20/32/2 26/39/2
f 18/29/4 22/34/4 28/41/4
f 25/37/8 28/41/8 32/48/8
f 30/45/15 29/43/15 32/48/15
f 27/40/8 26/39/8 30/46/8
f 28/41/8 27/40/8 31/47/8
f 26/39/8 25/38/8 29/44/8
