# Blender 3.4.1
# www.blender.org
o gantry__bridge-cog
v -0.050000 0.500000 0.000001
v 0.050000 0.500000 0.000001
v -0.050000 0.370383 -0.058662
v 0.050000 0.370383 -0.058662
v -0.050000 0.356646 -0.115881
v 0.050000 0.356646 -0.115881
v -0.050000 0.445503 -0.226995
v 0.050000 0.445503 -0.226995
v -0.050000 0.404508 -0.293892
v 0.050000 0.404508 -0.293892
v -0.050000 0.265165 -0.265164
v 0.050000 0.265165 -0.265164
v -0.050000 0.220419 -0.303381
v 0.050000 0.220419 -0.303381
v -0.050000 0.226995 -0.445502
v 0.050000 0.226995 -0.445503
v -0.050000 0.154508 -0.475527
v 0.050000 0.154508 -0.475528
v -0.050000 0.058663 -0.370383
v 0.050000 0.058663 -0.370383
v -0.050000 -0.000000 -0.374999
v 0.050000 -0.000000 -0.374999
v -0.050000 -0.078217 -0.493843
v 0.050000 -0.078217 -0.493843
v -0.050000 -0.154509 -0.475527
v 0.050000 -0.154509 -0.475528
v -0.050000 -0.170246 -0.334127
v 0.050000 -0.170246 -0.334127
v -0.050000 -0.220419 -0.303381
v 0.050000 -0.220419 -0.303381
v -0.050000 -0.353553 -0.353553
v 0.050000 -0.353553 -0.353553
v -0.050000 -0.404509 -0.293892
v 0.050000 -0.404509 -0.293892
v -0.050000 -0.334127 -0.170246
v 0.050000 -0.334127 -0.170246
v -0.050000 -0.356646 -0.115881
v 0.050000 -0.356646 -0.115881
v -0.050000 -0.493844 -0.078216
v 0.050000 -0.493844 -0.078216
v -0.050000 -0.500000 0.000001
v 0.050000 -0.500000 0.000001
v -0.050000 -0.370383 0.058664
v 0.050000 -0.370383 0.058664
v -0.050000 -0.356646 0.115882
v 0.050000 -0.356646 0.115882
v -0.050000 -0.445503 0.226996
v 0.050000 -0.445503 0.226996
v -0.050000 -0.404508 0.293894
v 0.050000 -0.404508 0.293894
v -0.050000 -0.265165 0.265166
v 0.050000 -0.265165 0.265166
v -0.050000 -0.220419 0.303382
v 0.050000 -0.220419 0.303382
v -0.050000 -0.226995 0.445504
v 0.050000 -0.226995 0.445504
v -0.050000 -0.154509 0.475529
v 0.050000 -0.154509 0.475529
v -0.050000 -0.058663 0.370384
v 0.050000 -0.058663 0.370384
v -0.050000 0.000000 0.375001
v 0.050000 0.000000 0.375001
v -0.050000 0.078217 0.493845
v 0.050000 0.078217 0.493845
v -0.050000 0.154509 0.475529
v 0.050000 0.154509 0.475529
v -0.050000 0.170246 0.334128
v 0.050000 0.170246 0.334128
v -0.050000 0.220419 0.303382
v 0.050000 0.220419 0.303382
v -0.050000 0.353553 0.353554
v 0.050000 0.353553 0.353554
v -0.050000 0.404508 0.293894
v 0.050000 0.404508 0.293894
v -0.050000 0.334127 0.170247
v 0.050000 0.334127 0.170247
v -0.050000 0.356646 0.115882
v 0.050000 0.356646 0.115882
v -0.050000 0.493844 0.078218
v 0.050000 0.493844 0.078218
v -0.093750 0.100000 0.000001
v -0.093750 0.070711 -0.070710
v 0.093750 0.100000 0.000001
v -0.093750 0.070711 0.070711
v -0.093750 0.000000 0.100001
v 0.093750 0.070711 0.070711
v 0.093750 -0.000000 0.100001
v 0.093750 -0.070711 0.070711
v 0.093750 -0.100000 0.000001
v -0.093750 -0.070711 0.070711
v -0.093750 -0.100000 0.000001
v -0.093750 -0.070711 -0.070710
v -0.093750 0.000000 -0.099999
v 0.093750 -0.070711 -0.070710
v 0.093750 -0.000000 -0.099999
v 0.093750 0.070711 -0.070710
vn -0.0000 0.4123 -0.9110
vn -0.0000 0.9724 -0.2334
vn -0.0000 0.7810 0.6245
vn -0.0000 0.8526 -0.5225
vn -0.0000 -0.2019 -0.9794
vn -0.0000 0.6495 -0.7604
vn -0.0000 0.9989 0.0462
vn -0.0000 0.3827 -0.9239
vn -0.0000 -0.7390 -0.6737
vn -0.0000 0.0785 -0.9969
vn -0.0000 0.8353 -0.5498
vn -0.0000 -0.2334 -0.9724
vn -0.0000 -0.9939 -0.1106
vn -0.0000 -0.5225 -0.8526
vn -0.0000 0.3526 -0.9358
vn -0.0000 -0.7604 -0.6494
vn -0.0000 -0.8691 0.4947
vn -0.0000 -0.9239 -0.3827
vn -0.0000 -0.2647 -0.9643
vn -0.0000 -0.9969 -0.0785
vn -0.0000 -0.4123 0.9110
vn -0.0000 -0.9724 0.2334
vn -0.0000 -0.7810 -0.6245
vn -0.0000 -0.8526 0.5225
vn -0.0000 0.2019 0.9794
vn -0.0000 -0.6495 0.7604
vn -0.0000 -0.9989 -0.0462
vn -0.0000 -0.3827 0.9239
vn -0.0000 0.7390 0.6737
vn -0.0000 -0.0785 0.9969
vn -0.0000 -0.8353 0.5498
vn -0.0000 0.2334 0.9724
vn -0.0000 0.9939 0.1106
vn -0.0000 0.5225 0.8526
vn -0.0000 -0.3526 0.9358
vn -0.0000 0.7604 0.6495
vn -0.0000 0.8691 -0.4947
vn -0.0000 0.9239 0.3827
vn 1.0000 -0.0000 -0.0000
vn -0.0000 0.2647 0.9643
vn -0.0000 0.9969 0.0785
vn -1.0000 -0.0000 -0.0000
vn -0.0000 0.9239 -0.3827
vn -0.0000 0.3827 0.9239
vn -0.0000 -0.9239 0.3827
vn -0.0000 -0.3827 -0.9239
vt 1.000000 0.500000
vt 0.000000 0.500000
vt 0.750000 0.490000
vt 1.000000 1.000000
vt 0.250000 0.490000
vt 0.000000 1.000000
vt 0.975000 0.500000
vt 0.787544 0.487045
vt 0.975000 1.000000
vt 0.287544 0.487045
vt 0.950000 0.500000
vt 0.824164 0.478254
vt 0.950000 1.000000
vt 0.324164 0.478254
vt 0.925000 0.500000
vt 0.858958 0.463842
vt 0.925000 1.000000
vt 0.358958 0.463842
vt 0.900000 0.500000
vt 0.891068 0.444164
vt 0.900000 1.000000
vt 0.391068 0.444164
vt 0.875000 0.500000
vt 0.919706 0.419706
vt 0.875000 1.000000
vt 0.419706 0.419706
vt 0.850000 0.500000
vt 0.944164 0.391068
vt 0.850000 1.000000
vt 0.444164 0.391068
vt 0.825000 0.500000
vt 0.963842 0.358958
vt 0.825000 1.000000
vt 0.463842 0.358958
vt 0.800000 0.500000
vt 0.978254 0.324164
vt 0.800000 1.000000
vt 0.478254 0.324164
vt 0.775000 0.500000
vt 0.987045 0.287544
vt 0.775000 1.000000
vt 0.487045 0.287544
vt 0.750000 0.500000
vt 0.990000 0.250000
vt 0.750000 1.000000
vt 0.490000 0.250000
vt 0.725000 0.500000
vt 0.987045 0.212456
vt 0.725000 1.000000
vt 0.487045 0.212456
vt 0.700000 0.500000
vt 0.978254 0.175836
vt 0.700000 1.000000
vt 0.478254 0.175836
vt 0.675000 0.500000
vt 0.963842 0.141042
vt 0.675000 1.000000
vt 0.463842 0.141042
vt 0.650000 0.500000
vt 0.944164 0.108932
vt 0.650000 1.000000
vt 0.444164 0.108932
vt 0.625000 0.500000
vt 0.919706 0.080294
vt 0.625000 1.000000
vt 0.419706 0.080294
vt 0.600000 0.500000
vt 0.891068 0.055836
vt 0.600000 1.000000
vt 0.391068 0.055836
vt 0.575000 0.500000
vt 0.858958 0.036158
vt 0.575000 1.000000
vt 0.358958 0.036158
vt 0.550000 0.500000
vt 0.824164 0.021746
vt 0.550000 1.000000
vt 0.324164 0.021746
vt 0.525000 0.500000
vt 0.787544 0.012955
vt 0.525000 1.000000
vt 0.287544 0.012955
vt 0.500000 0.500000
vt 0.750000 0.010000
vt 0.500000 1.000000
vt 0.250000 0.010000
vt 0.475000 0.500000
vt 0.712456 0.012955
vt 0.475000 1.000000
vt 0.212456 0.012955
vt 0.450000 0.500000
vt 0.675836 0.021746
vt 0.450000 1.000000
vt 0.175836 0.021746
vt 0.425000 0.500000
vt 0.641042 0.036158
vt 0.425000 1.000000
vt 0.141042 0.036158
vt 0.400000 0.500000
vt 0.608932 0.055836
vt 0.400000 1.000000
vt 0.108932 0.055836
vt 0.375000 0.500000
vt 0.580294 0.080294
vt 0.375000 1.000000
vt 0.080294 0.080294
vt 0.350000 0.500000
vt 0.555836 0.108932
vt 0.350000 1.000000
vt 0.055836 0.108932
vt 0.325000 0.500000
vt 0.536158 0.141042
vt 0.325000 1.000000
vt 0.036158 0.141042
vt 0.300000 0.500000
vt 0.521746 0.175836
vt 0.300000 1.000000
vt 0.021746 0.175836
vt 0.275000 0.500000
vt 0.512955 0.212456
vt 0.275000 1.000000
vt 0.012955 0.212456
vt 0.250000 0.500000
vt 0.510000 0.250000
vt 0.250000 1.000000
vt 0.010000 0.250000
vt 0.225000 0.500000
vt 0.512955 0.287544
vt 0.225000 1.000000
vt 0.012955 0.287544
vt 0.200000 0.500000
vt 0.521746 0.324164
vt 0.200000 1.000000
vt 0.021746 0.324164
vt 0.175000 0.500000
vt 0.536158 0.358958
vt 0.175000 1.000000
vt 0.036158 0.358958
vt 0.150000 0.500000
vt 0.555836 0.391068
vt 0.150000 1.000000
vt 0.055836 0.391068
vt 0.125000 0.500000
vt 0.580294 0.419706
vt 0.125000 1.000000
vt 0.080294 0.419706
vt 0.100000 0.500000
vt 0.608932 0.444164
vt 0.100000 1.000000
vt 0.108932 0.444164
vt 0.075000 0.500000
vt 0.641042 0.463842
vt 0.075000 1.000000
vt 0.141042 0.463842
vt 0.050000 0.500000
vt 0.675836 0.478254
vt 0.175836 0.478254
vt 0.050000 1.000000
vt 0.025000 0.500000
vt 0.712456 0.487045
vt 0.212456 0.487045
vt 0.025000 1.000000
vt 1.000000 0.500000
vt 0.750000 0.490000
vt 0.000000 0.500000
vt 0.919706 0.419706
vt 0.875000 0.500000
vt 1.000000 1.000000
vt 0.000000 1.000000
vt 0.250000 0.490000
vt 0.125000 0.500000
vt 0.580294 0.419706
vt 0.510000 0.250000
vt 0.250000 0.500000
vt 0.125000 1.000000
vt 0.080294 0.419706
vt 0.010000 0.250000
vt 0.250000 1.000000
vt 0.080294 0.080294
vt 0.375000 1.000000
vt 0.250000 0.010000
vt 0.500000 1.000000
vt 0.375000 0.500000
vt 0.580294 0.080294
vt 0.750000 0.010000
vt 0.500000 0.500000
vt 0.919706 0.080294
vt 0.625000 0.500000
vt 0.990000 0.250000
vt 0.750000 0.500000
vt 0.419706 0.080294
vt 0.625000 1.000000
vt 0.490000 0.250000
vt 0.750000 1.000000
vt 0.419706 0.419706
vt 0.875000 1.000000
s 0
f 2/4/1 3/7/1 1/1/1
f 4/9/2 5/11/2 3/7/2
f 6/13/3 7/15/3 5/11/3
f 8/17/4 9/19/4 7/15/4
f 10/21/5 11/23/5 9/19/5
f 12/25/6 13/27/6 11/23/6
f 14/29/7 15/31/7 13/27/7
f 16/33/8 17/35/8 15/31/8
f 18/37/9 19/39/9 17/35/9
f 20/41/10 21/43/10 19/39/10
f 22/45/11 23/47/11 21/43/11
f 24/49/12 25/51/12 23/47/12
f 25/51/13 28/57/13 27/55/13
f 28/57/14 29/59/14 27/55/14
f 30/61/15 31/63/15 29/59/15
f 32/65/16 33/67/16 31/63/16
f 34/69/17 35/71/17 33/67/17
f 35/71/18 38/77/18 37/75/18
f 38/77/19 39/79/19 37/75/19
f 39/79/20 42/85/20 41/83/20
f 42/85/21 43/87/21 41/83/21
f 44/89/22 45/91/22 43/87/22
f 45/91/23 48/97/23 47/95/23
f 47/95/24 50/101/24 49/99/24
f 50/101/25 51/103/25 49/99/25
f 52/105/26 53/107/26 51/103/26
f 53/107/27 56/113/27 55/111/27
f 55/111/28 58/117/28 57/115/28
f 58/117/29 59/119/29 57/115/29
f 60/121/30 61/123/30 59/119/30
f 61/123/31 64/129/31 63/127/31
f 63/127/32 66/133/32 65/131/32
f 66/133/33 67/135/33 65/131/33
f 68/137/34 69/139/34 67/135/34
f 70/141/35 71/143/35 69/139/35
f 72/145/36 73/147/36 71/143/36
f 74/149/37 75/151/37 73/147/37
f 76/153/38 77/155/38 75/151/38
f 52/106/39 46/94/39 38/78/39
f 78/158/40 79/159/40 77/155/40
f 80/162/41 1/2/41 79/159/41
f 37/76/42 43/88/42 51/104/42
f 92/187/42 90/184/42 84/172/42
f 83/168/43 82/167/43 81/163/43
f 86/175/38 81/165/38 84/171/38
f 85/174/44 86/175/44 84/171/44
f 87/177/39 89/181/39 95/193/39
f 88/180/28 85/174/28 90/183/28
f 91/186/45 88/180/45 90/183/45
f 94/192/18 91/186/18 92/188/18
f 95/194/46 92/188/46 93/190/46
f 96/196/8 93/190/8 82/167/8
f 2/4/1 4/9/1 3/7/1
f 4/9/2 6/13/2 5/11/2
f 6/13/3 8/17/3 7/15/3
f 8/17/4 10/21/4 9/19/4
f 10/21/5 12/25/5 11/23/5
f 12/25/6 14/29/6 13/27/6
f 14/29/7 16/33/7 15/31/7
f 16/33/8 18/37/8 17/35/8
f 18/37/9 20/41/9 19/39/9
f 20/41/10 22/45/10 21/43/10
f 22/45/11 24/49/11 23/47/11
f 24/49/12 26/53/12 25/51/12
f 25/51/13 26/53/13 28/57/13
f 28/57/14 30/61/14 29/59/14
f 30/61/15 32/65/15 31/63/15
f 32/65/16 34/69/16 33/67/16
f 34/69/17 36/73/17 35/71/17
f 35/71/18 36/73/18 38/77/18
f 38/77/19 40/81/19 39/79/19
f 39/79/20 40/81/20 42/85/20
f 42/85/21 44/89/21 43/87/21
f 44/89/22 46/93/22 45/91/22
f 45/91/23 46/93/23 48/97/23
f 47/95/24 48/97/24 50/101/24
f 50/101/25 52/105/25 51/103/25
f 52/105/26 54/109/26 53/107/26
f 53/107/27 54/109/27 56/113/27
f 55/111/28 56/113/28 58/117/28
f 58/117/29 60/121/29 59/119/29
f 60/121/30 62/125/30 61/123/30
f 61/123/31 62/125/31 64/129/31
f 63/127/32 64/129/32 66/133/32
f 66/133/33 68/137/33 67/135/33
f 68/137/34 70/141/34 69/139/34
f 70/141/35 72/145/35 71/143/35
f 72/145/36 74/149/36 73/147/36
f 74/149/37 76/153/37 75/151/37
f 76/153/38 78/158/38 77/155/38
f 4/10/39 2/5/39 80/161/39
f 4/10/39 80/161/39 78/157/39
f 10/22/39 8/18/39 6/14/39
f 6/14/39 4/10/39 78/157/39
f 76/154/39 74/150/39 72/146/39
f 6/14/39 78/157/39 76/154/39
f 12/26/39 10/22/39 6/14/39
f 18/38/39 16/34/39 14/30/39
f 14/30/39 12/26/39 6/14/39
f 76/154/39 72/146/39 70/142/39
f 14/30/39 6/14/39 76/154/39
f 20/42/39 18/38/39 14/30/39
f 26/54/39 24/50/39 22/46/39
f 22/46/39 20/42/39 14/30/39
f 14/30/39 76/154/39 70/142/39
f 68/138/39 66/134/39 64/130/39
f 14/30/39 70/142/39 68/138/39
f 28/58/39 26/54/39 22/46/39
f 22/46/39 14/30/39 68/138/39
f 68/138/39 64/130/39 62/126/39
f 60/122/39 58/118/39 56/114/39
f 68/138/39 62/126/39 60/122/39
f 28/58/39 22/46/39 68/138/39
f 34/70/39 32/66/39 30/62/39
f 30/62/39 28/58/39 68/138/39
f 60/122/39 56/114/39 54/110/39
f 30/62/39 68/138/39 60/122/39
f 36/74/39 34/70/39 30/62/39
f 42/86/39 40/82/39 38/78/39
f 38/78/39 36/74/39 30/62/39
f 30/62/39 60/122/39 54/110/39
f 52/106/39 50/102/39 48/98/39
f 30/62/39 54/110/39 52/106/39
f 44/90/39 42/86/39 38/78/39
f 38/78/39 30/62/39 52/106/39
f 52/106/39 48/98/39 46/94/39
f 46/94/39 44/90/39 38/78/39
f 78/158/40 80/162/40 79/159/40
f 80/162/41 2/6/41 1/2/41
f 79/160/42 1/3/42 3/8/42
f 5/12/42 7/16/42 9/20/42
f 77/156/42 79/160/42 3/8/42
f 5/12/42 9/20/42 11/24/42
f 77/156/42 3/8/42 5/12/42
f 71/144/42 73/148/42 75/152/42
f 75/152/42 77/156/42 5/12/42
f 5/12/42 11/24/42 13/28/42
f 13/28/42 15/32/42 17/36/42
f 13/28/42 17/36/42 19/40/42
f 75/152/42 5/12/42 13/28/42
f 69/140/42 71/144/42 75/152/42
f 63/128/42 65/132/42 67/136/42
f 67/136/42 69/140/42 75/152/42
f 75/152/42 13/28/42 19/40/42
f 21/44/42 23/48/42 25/52/42
f 75/152/42 19/40/42 21/44/42
f 61/124/42 63/128/42 67/136/42
f 67/136/42 75/152/42 21/44/42
f 21/44/42 25/52/42 27/56/42
f 29/60/42 31/64/42 33/68/42
f 21/44/42 27/56/42 29/60/42
f 61/124/42 67/136/42 21/44/42
f 55/112/42 57/116/42 59/120/42
f 59/120/42 61/124/42 21/44/42
f 29/60/42 33/68/42 35/72/42
f 59/120/42 21/44/42 29/60/42
f 53/108/42 55/112/42 59/120/42
f 47/96/42 49/100/42 51/104/42
f 51/104/42 53/108/42 59/120/42
f 59/120/42 29/60/42 35/72/42
f 37/76/42 39/80/42 41/84/42
f 59/120/42 35/72/42 37/76/42
f 45/92/42 47/96/42 51/104/42
f 51/104/42 59/120/42 37/76/42
f 37/76/42 41/84/42 43/88/42
f 43/88/42 45/92/42 51/104/42
f 84/172/42 81/164/42 82/166/42
f 82/166/42 93/189/42 92/187/42
f 92/187/42 91/185/42 90/184/42
f 90/184/42 85/173/42 84/172/42
f 84/172/42 82/166/42 92/187/42
f 83/168/43 96/196/43 82/167/43
f 86/175/38 83/169/38 81/165/38
f 85/174/44 87/178/44 86/175/44
f 95/193/39 96/195/39 83/170/39
f 83/170/39 86/176/39 87/177/39
f 87/177/39 88/179/39 89/181/39
f 89/181/39 94/191/39 95/193/39
f 95/193/39 83/170/39 87/177/39
f 88/180/28 87/178/28 85/174/28
f 91/186/45 89/182/45 88/180/45
f 94/192/18 89/182/18 91/186/18
f 95/194/46 94/192/46 92/188/46
f 96/196/8 95/194/8 93/190/8
