# Blender v3.1.2 OBJ File: 'gantry.blend'
# www.blender.org
mtllib gantry__cog.mtl
v -0.000001 0.500000 -0.050000
v -0.000001 0.500000 0.050000
v 0.058662 0.370383 -0.050000
v 0.058662 0.370383 0.050000
v 0.115881 0.356646 -0.050000
v 0.115881 0.356646 0.050000
v 0.226995 0.445503 -0.050000
v 0.226995 0.445503 0.050000
v 0.293892 0.404509 -0.050000
v 0.293892 0.404509 0.050000
v 0.265164 0.265165 -0.050000
v 0.265164 0.265165 0.050000
v 0.303381 0.220419 -0.050000
v 0.303381 0.220419 0.050000
v 0.445502 0.226995 -0.050000
v 0.445503 0.226995 0.050000
v 0.475527 0.154509 -0.050000
v 0.475528 0.154508 0.050000
v 0.370383 0.058663 -0.050000
v 0.370383 0.058663 0.050000
v 0.374999 -0.000000 -0.050000
v 0.374999 -0.000000 0.050000
v 0.493843 -0.078217 -0.050000
v 0.493843 -0.078217 0.050000
v 0.475527 -0.154509 -0.050000
v 0.475528 -0.154509 0.050000
v 0.334127 -0.170246 -0.050000
v 0.334127 -0.170246 0.050000
v 0.303381 -0.220419 -0.050000
v 0.303381 -0.220419 0.050000
v 0.353553 -0.353553 -0.050000
v 0.353553 -0.353553 0.050000
v 0.293892 -0.404509 -0.050000
v 0.293892 -0.404509 0.050000
v 0.170246 -0.334127 -0.050000
v 0.170246 -0.334127 0.050000
v 0.115881 -0.356646 -0.050000
v 0.115881 -0.356646 0.050000
v 0.078216 -0.493844 -0.050000
v 0.078216 -0.493844 0.050000
v -0.000001 -0.500000 -0.050000
v -0.000001 -0.500000 0.050000
v -0.058664 -0.370383 -0.050000
v -0.058664 -0.370383 0.050000
v -0.115882 -0.356646 -0.050000
v -0.115882 -0.356646 0.050000
v -0.226996 -0.445503 -0.050000
v -0.226996 -0.445503 0.050000
v -0.293894 -0.404508 -0.050000
v -0.293894 -0.404509 0.050000
v -0.265166 -0.265165 -0.050000
v -0.265166 -0.265165 0.050000
v -0.303382 -0.220419 -0.050000
v -0.303382 -0.220419 0.050000
v -0.445504 -0.226995 -0.050000
v -0.445504 -0.226995 0.050000
v -0.475529 -0.154509 -0.050000
v -0.475529 -0.154509 0.050000
v -0.370384 -0.058663 -0.050000
v -0.370384 -0.058663 0.050000
v -0.375001 0.000000 -0.050000
v -0.375001 0.000000 0.050000
v -0.493845 0.078217 -0.050000
v -0.493845 0.078217 0.050000
v -0.475529 0.154509 -0.050000
v -0.475529 0.154509 0.050000
v -0.334128 0.170247 -0.050000
v -0.334128 0.170246 0.050000
v -0.303382 0.220419 -0.050000
v -0.303382 0.220419 0.050000
v -0.353554 0.353553 -0.050000
v -0.353554 0.353553 0.050000
v -0.293894 0.404509 -0.050000
v -0.293894 0.404508 0.050000
v -0.170247 0.334127 -0.050000
v -0.170247 0.334127 0.050000
v -0.115882 0.356646 -0.050000
v -0.115882 0.356646 0.050000
v -0.078218 0.493844 -0.050000
v -0.078218 0.493844 0.050000
v -0.000001 0.100000 -0.093750
v 0.070710 0.070711 -0.093750
v -0.000001 0.100000 0.093750
v -0.070711 0.070711 -0.093750
v -0.100001 0.000000 -0.093750
v -0.070711 0.070711 0.093750
v -0.100001 -0.000000 0.093750
v -0.070711 -0.070711 0.093750
v -0.000001 -0.100000 0.093750
v -0.070711 -0.070711 -0.093750
v -0.000001 -0.100000 -0.093750
v 0.070710 -0.070711 -0.093750
v 0.099999 0.000000 -0.093750
v 0.070710 -0.070711 0.093750
v 0.099999 -0.000000 0.093750
v 0.070710 0.070711 0.093750
vt 1.000000 1.000000
vt 0.975000 0.500000
vt 1.000000 0.500000
vt 0.950000 1.000000
vt 0.950000 0.500000
vt 0.925000 0.500000
vt 0.925000 1.000000
vt 0.900000 0.500000
vt 0.900000 1.000000
vt 0.875000 0.500000
vt 0.875000 1.000000
vt 0.850000 0.500000
vt 0.850000 1.000000
vt 0.825000 0.500000
vt 0.825000 1.000000
vt 0.800000 0.500000
vt 0.800000 1.000000
vt 0.775000 0.500000
vt 0.775000 1.000000
vt 0.750000 0.500000
vt 0.750000 1.000000
vt 0.725000 0.500000
vt 0.725000 1.000000
vt 0.700000 0.500000
vt 0.675000 1.000000
vt 0.675000 0.500000
vt 0.650000 0.500000
vt 0.650000 1.000000
vt 0.625000 0.500000
vt 0.600000 1.000000
vt 0.600000 0.500000
vt 0.575000 0.500000
vt 0.550000 1.000000
vt 0.550000 0.500000
vt 0.525000 0.500000
vt 0.500000 1.000000
vt 0.500000 0.500000
vt 0.475000 0.500000
vt 0.475000 1.000000
vt 0.450000 0.500000
vt 0.450000 1.000000
vt 0.425000 0.500000
vt 0.400000 1.000000
vt 0.400000 0.500000
vt 0.375000 0.500000
vt 0.350000 1.000000
vt 0.350000 0.500000
vt 0.325000 1.000000
vt 0.325000 0.500000
vt 0.300000 1.000000
vt 0.300000 0.500000
vt 0.275000 0.500000
vt 0.275000 1.000000
vt 0.250000 0.500000
vt 0.250000 1.000000
vt 0.225000 0.500000
vt 0.225000 1.000000
vt 0.200000 0.500000
vt 0.200000 1.000000
vt 0.175000 0.500000
vt 0.175000 1.000000
vt 0.150000 0.500000
vt 0.150000 1.000000
vt 0.125000 0.500000
vt 0.125000 1.000000
vt 0.100000 0.500000
vt 0.100000 1.000000
vt 0.075000 0.500000
vt 0.075000 1.000000
vt 0.050000 0.500000
vt 0.212456 0.012955
vt 0.324164 0.021746
vt 0.080294 0.080294
vt 0.025000 1.000000
vt 0.025000 0.500000
vt 0.000000 0.500000
vt 0.824164 0.021746
vt 0.712456 0.012955
vt 0.580294 0.080294
vt 0.510000 0.250000
vt 0.580294 0.419706
vt 0.919706 0.080294
vt 1.000000 1.000000
vt 0.875000 0.500000
vt 1.000000 0.500000
vt 0.125000 1.000000
vt 0.000000 0.500000
vt 0.125000 0.500000
vt 0.250000 0.500000
vt 0.010000 0.250000
vt 0.250000 0.010000
vt 0.490000 0.250000
vt 0.375000 1.000000
vt 0.375000 0.500000
vt 0.500000 0.500000
vt 0.625000 1.000000
vt 0.625000 0.500000
vt 0.750000 1.000000
vt 0.750000 0.500000
vt 0.875000 1.000000
vt 0.975000 1.000000
vt 0.700000 1.000000
vt 0.625000 1.000000
vt 0.575000 1.000000
vt 0.525000 1.000000
vt 0.425000 1.000000
vt 0.375000 1.000000
vt 0.050000 1.000000
vt 0.287544 0.487045
vt 0.250000 0.490000
vt 0.212456 0.487045
vt 0.175836 0.478254
vt 0.391068 0.444164
vt 0.358958 0.463842
vt 0.324164 0.478254
vt 0.141042 0.463842
vt 0.108932 0.444164
vt 0.080294 0.419706
vt 0.419706 0.419706
vt 0.478254 0.324164
vt 0.463842 0.358958
vt 0.444164 0.391068
vt 0.055836 0.391068
vt 0.487045 0.287544
vt 0.478254 0.175836
vt 0.487045 0.212456
vt 0.463842 0.141042
vt 0.490000 0.250000
vt 0.036158 0.358958
vt 0.021746 0.324164
vt 0.012955 0.287544
vt 0.010000 0.250000
vt 0.012955 0.212456
vt 0.021746 0.175836
vt 0.055836 0.108932
vt 0.036158 0.141042
vt 0.444164 0.108932
vt 0.391068 0.055836
vt 0.419706 0.080294
vt 0.358958 0.036158
vt 0.250000 0.010000
vt 0.287544 0.012955
vt 0.108932 0.055836
vt 0.141042 0.036158
vt 0.175836 0.021746
vt 0.000000 1.000000
vt 0.712456 0.487045
vt 0.750000 0.490000
vt 0.787544 0.487045
vt 0.824164 0.478254
vt 0.858958 0.463842
vt 0.891068 0.444164
vt 0.675836 0.478254
vt 0.919706 0.419706
vt 0.580294 0.419706
vt 0.608932 0.444164
vt 0.641042 0.463842
vt 0.944164 0.391068
vt 0.963842 0.358958
vt 0.978254 0.324164
vt 0.987045 0.287544
vt 0.555836 0.391068
vt 0.512955 0.287544
vt 0.521746 0.324164
vt 0.536158 0.358958
vt 0.990000 0.250000
vt 0.987045 0.212456
vt 0.963842 0.141042
vt 0.978254 0.175836
vt 0.510000 0.250000
vt 0.944164 0.108932
vt 0.919706 0.080294
vt 0.858958 0.036158
vt 0.891068 0.055836
vt 0.536158 0.141042
vt 0.521746 0.175836
vt 0.555836 0.108932
vt 0.512955 0.212456
vt 0.641042 0.036158
vt 0.608932 0.055836
vt 0.787544 0.012955
vt 0.750000 0.010000
vt 0.675836 0.021746
vt 0.750000 0.490000
vt 0.919706 0.419706
vt 0.990000 0.250000
vt 0.750000 0.010000
vt 0.580294 0.080294
vt 0.000000 1.000000
vt 0.250000 1.000000
vt 0.419706 0.419706
vt 0.250000 0.490000
vt 0.080294 0.419706
vt 0.080294 0.080294
vt 0.419706 0.080294
vt 0.500000 1.000000
vn 0.9110 0.4123 -0.0000
vn 0.2334 0.9724 -0.0000
vn -0.6245 0.7810 0.0000
vn 0.5225 0.8526 0.0000
vn 0.9794 -0.2019 -0.0000
vn 0.7604 0.6495 -0.0000
vn -0.0462 0.9989 0.0000
vn 0.9239 0.3827 -0.0000
vn 0.6737 -0.7390 -0.0000
vn 0.9969 0.0785 -0.0000
vn 0.5498 0.8353 -0.0000
vn 0.9724 -0.2334 -0.0000
vn 0.1106 -0.9939 -0.0000
vn 0.8526 -0.5225 -0.0000
vn 0.9358 0.3526 -0.0000
vn 0.6494 -0.7604 -0.0000
vn -0.4947 -0.8691 0.0000
vn 0.3827 -0.9239 -0.0000
vn 0.9643 -0.2647 -0.0000
vn 0.0785 -0.9969 -0.0000
vn -0.9110 -0.4123 0.0000
vn -0.2334 -0.9724 0.0000
vn 0.6245 -0.7810 0.0000
vn -0.5225 -0.8526 -0.0000
vn -0.9794 0.2019 0.0000
vn -0.7604 -0.6494 0.0000
vn 0.0462 -0.9989 -0.0000
vn -0.9239 -0.3827 0.0000
vn -0.6737 0.7390 0.0000
vn -0.9969 -0.0785 0.0000
vn -0.5498 -0.8353 0.0000
vn -0.9724 0.2334 0.0000
vn -0.1106 0.9939 0.0000
vn -0.8526 0.5225 0.0000
vn -0.9358 -0.3526 0.0000
vn -0.6495 0.7604 0.0000
vn 0.4947 0.8691 0.0000
vn -0.3827 0.9239 0.0000
vn 0.0000 -0.0000 1.0000
vn -0.9643 0.2647 0.0000
vn -0.0785 0.9969 0.0000
vn -0.0000 0.0000 -1.0000
vn 0.3827 0.9239 -0.0000
vn -0.9239 0.3827 0.0000
vn -0.3827 -0.9239 0.0000
vn 0.9239 -0.3827 -0.0000
vn -0.6494 0.7604 0.0000
usemtl None
s off
f 2/1/1 3/2/1 1/3/1
f 3/2/2 6/4/2 5/5/2
f 6/4/3 7/6/3 5/5/3
f 8/7/4 9/8/4 7/6/4
f 10/9/5 11/10/5 9/8/5
f 12/11/6 13/12/6 11/10/6
f 14/13/7 15/14/7 13/12/7
f 16/15/8 17/16/8 15/14/8
f 18/17/9 19/18/9 17/16/9
f 20/19/10 21/20/10 19/18/10
f 22/21/11 23/22/11 21/20/11
f 24/23/12 25/24/12 23/22/12
f 25/24/13 28/25/13 27/26/13
f 28/25/14 29/27/14 27/26/14
f 30/28/15 31/29/15 29/27/15
f 31/29/16 34/30/16 33/31/16
f 34/30/17 35/32/17 33/31/17
f 35/32/18 38/33/18 37/34/18
f 38/33/19 39/35/19 37/34/19
f 39/35/20 42/36/20 41/37/20
f 42/36/21 43/38/21 41/37/21
f 44/39/22 45/40/22 43/38/22
f 46/41/23 47/42/23 45/40/23
f 47/42/24 50/43/24 49/44/24
f 50/43/25 51/45/25 49/44/25
f 51/45/26 54/46/26 53/47/26
f 53/47/27 56/48/27 55/49/27
f 55/49/28 58/50/28 57/51/28
f 58/50/29 59/52/29 57/51/29
f 60/53/30 61/54/30 59/52/30
f 62/55/31 63/56/31 61/54/31
f 64/57/32 65/58/32 63/56/32
f 66/59/33 67/60/33 65/58/33
f 68/61/34 69/62/34 67/60/34
f 70/63/35 71/64/35 69/62/35
f 72/65/36 73/66/36 71/64/36
f 74/67/37 75/68/37 73/66/37
f 76/69/38 77/70/38 75/68/38
f 44/71/39 38/72/39 52/73/39
f 77/70/40 80/74/40 79/75/40
f 80/74/41 1/76/41 79/75/41
f 37/77/42 43/78/42 51/79/42
f 85/80/42 84/81/42 92/82/42
f 83/83/43 82/84/43 81/85/43
f 86/86/38 81/87/38 84/88/38
f 85/89/44 86/86/44 84/88/44
f 87/90/39 89/91/39 95/92/39
f 88/93/28 85/89/28 90/94/28
f 91/95/45 88/93/45 90/94/45
f 94/96/18 91/95/18 92/97/18
f 95/98/46 92/97/46 93/99/46
f 96/100/8 93/99/8 82/84/8
f 2/1/1 4/101/1 3/2/1
f 3/2/2 4/101/2 6/4/2
f 6/4/3 8/7/3 7/6/3
f 8/7/4 10/9/4 9/8/4
f 10/9/5 12/11/5 11/10/5
f 12/11/6 14/13/6 13/12/6
f 14/13/7 16/15/7 15/14/7
f 16/15/8 18/17/8 17/16/8
f 18/17/9 20/19/9 19/18/9
f 20/19/10 22/21/10 21/20/10
f 22/21/11 24/23/11 23/22/11
f 24/23/12 26/102/12 25/24/12
f 25/24/13 26/102/13 28/25/13
f 28/25/14 30/28/14 29/27/14
f 30/28/15 32/103/15 31/29/15
f 31/29/16 32/103/16 34/30/16
f 34/30/17 36/104/17 35/32/17
f 35/32/18 36/104/18 38/33/18
f 38/33/19 40/105/19 39/35/19
f 39/35/20 40/105/20 42/36/20
f 42/36/21 44/39/21 43/38/21
f 44/39/22 46/41/22 45/40/22
f 46/41/23 48/106/23 47/42/23
f 47/42/24 48/106/24 50/43/24
f 50/43/25 52/107/25 51/45/25
f 51/45/26 52/107/26 54/46/26
f 53/47/27 54/46/27 56/48/27
f 55/49/28 56/48/28 58/50/28
f 58/50/29 60/53/29 59/52/29
f 60/53/30 62/55/30 61/54/30
f 62/55/31 64/57/31 63/56/31
f 64/57/32 66/59/32 65/58/32
f 66/59/33 68/61/33 67/60/33
f 68/61/34 70/63/34 69/62/34
f 70/63/35 72/65/35 71/64/35
f 72/65/47 74/67/47 73/66/47
f 74/67/37 76/69/37 75/68/37
f 76/69/38 78/108/38 77/70/38
f 4/109/39 2/110/39 80/111/39
f 4/109/39 80/111/39 78/112/39
f 10/113/39 8/114/39 6/115/39
f 6/115/39 4/109/39 76/116/39
f 4/109/39 78/112/39 76/116/39
f 76/116/39 74/117/39 72/118/39
f 12/119/39 10/113/39 6/115/39
f 18/120/39 16/121/39 14/122/39
f 14/122/39 12/119/39 76/116/39
f 12/119/39 6/115/39 76/116/39
f 76/116/39 72/118/39 70/123/39
f 20/124/39 18/120/39 14/122/39
f 26/125/39 24/126/39 28/127/39
f 24/126/39 22/128/39 28/127/39
f 22/128/39 20/124/39 14/122/39
f 14/122/39 76/116/39 70/123/39
f 68/129/39 66/130/39 64/131/39
f 14/122/39 70/123/39 68/129/39
f 22/128/39 14/122/39 28/127/39
f 14/122/39 68/129/39 28/127/39
f 68/129/39 64/131/39 62/132/39
f 60/133/39 58/134/39 54/135/39
f 58/134/39 56/136/39 54/135/39
f 68/129/39 62/132/39 30/137/39
f 62/132/39 60/133/39 30/137/39
f 34/138/39 32/139/39 36/140/39
f 32/139/39 30/137/39 36/140/39
f 30/137/39 28/127/39 68/129/39
f 42/141/39 40/142/39 44/71/39
f 40/142/39 38/72/39 44/71/39
f 38/72/39 36/140/39 30/137/39
f 30/137/39 60/133/39 52/73/39
f 60/133/39 54/135/39 52/73/39
f 52/73/39 50/143/39 48/144/39
f 38/72/39 30/137/39 52/73/39
f 52/73/39 48/144/39 46/145/39
f 46/145/39 44/71/39 52/73/39
f 77/70/40 78/108/40 80/74/40
f 80/74/41 2/146/41 1/76/41
f 79/147/42 1/148/42 3/149/42
f 5/150/42 7/151/42 9/152/42
f 77/153/42 79/147/42 3/149/42
f 5/150/42 9/152/42 11/154/42
f 77/153/42 3/149/42 5/150/42
f 71/155/42 73/156/42 75/157/42
f 75/157/42 77/153/42 5/150/42
f 5/150/42 11/154/42 75/157/42
f 11/154/42 13/158/42 75/157/42
f 13/158/42 15/159/42 17/160/42
f 13/158/42 17/160/42 19/161/42
f 69/162/42 71/155/42 75/157/42
f 63/163/42 65/164/42 67/165/42
f 67/165/42 69/162/42 21/166/42
f 69/162/42 75/157/42 21/166/42
f 75/157/42 13/158/42 21/166/42
f 13/158/42 19/161/42 21/166/42
f 21/166/42 23/167/42 27/168/42
f 23/167/42 25/169/42 27/168/42
f 61/170/42 63/163/42 67/165/42
f 29/171/42 31/172/42 35/173/42
f 31/172/42 33/174/42 35/173/42
f 21/166/42 27/168/42 29/171/42
f 61/170/42 67/165/42 21/166/42
f 55/175/42 57/176/42 53/177/42
f 57/176/42 59/178/42 53/177/42
f 59/178/42 61/170/42 29/171/42
f 61/170/42 21/166/42 29/171/42
f 47/179/42 49/180/42 51/79/42
f 51/79/42 53/177/42 59/178/42
f 59/178/42 29/171/42 37/77/42
f 29/171/42 35/173/42 37/77/42
f 37/77/42 39/181/42 43/78/42
f 39/181/42 41/182/42 43/78/42
f 45/183/42 47/179/42 51/79/42
f 51/79/42 59/178/42 37/77/42
f 43/78/42 45/183/42 51/79/42
f 84/81/42 81/184/42 82/185/42
f 82/185/42 93/186/42 84/81/42
f 93/186/42 92/82/42 84/81/42
f 92/82/42 91/187/42 90/188/42
f 90/188/42 85/80/42 92/82/42
f 83/83/43 96/100/43 82/84/43
f 86/86/38 83/189/38 81/87/38
f 85/89/44 87/190/44 86/86/44
f 95/92/39 96/191/39 83/192/39
f 83/192/39 86/193/39 87/90/39
f 87/90/39 88/194/39 89/91/39
f 89/91/39 94/195/39 95/92/39
f 95/92/39 83/192/39 87/90/39
f 88/93/28 87/190/28 85/89/28
f 91/95/45 89/196/45 88/93/45
f 94/96/18 89/196/18 91/95/18
f 95/98/46 94/96/46 92/97/46
f 96/100/8 95/98/8 93/99/8
