# Blender v3.1.2 OBJ File: 'gantry.blend'
# www.blender.org
mtllib gantry__bridge.mtl
v 1.999995 -1.000000 -10.000000
v 1.999995 0.000000 -10.000000
v 2.249995 -1.000000 -10.000002
v 2.249995 0.000000 -10.000002
v 2.000000 -1.000000 -0.000001
v 2.000000 0.000000 -0.000001
v 2.250000 -1.000000 -0.000001
v 2.250000 0.000000 -0.000001
v 2.249996 -1.000000 -7.500001
v 2.249996 -1.000000 -9.000002
v 2.249996 0.000000 -9.000002
v 2.249996 0.000000 -7.500000
v 1.999996 -1.000000 -9.000000
v 1.999997 -1.000000 -7.500000
v 1.999997 0.000000 -7.500001
v 1.999996 0.000000 -9.000000
v 2.187496 0.000000 -7.500000
v 2.062496 0.000000 -7.500001
v 2.187496 0.000000 -9.000000
v 2.062496 0.000000 -9.000000
v 2.187496 -0.750000 -7.500000
v 2.062496 -0.750000 -7.500001
v 2.187496 -0.750000 -9.000000
v 2.062496 -0.750000 -9.000000
v -0.250000 -1.000000 0.000001
v -0.250000 0.000000 0.000001
v -0.250005 -1.000000 -10.000000
v -0.250005 0.000000 -10.000000
v 0.000000 -1.000000 0.000000
v 0.000000 0.000000 0.000000
v -0.000005 -1.000000 -10.000000
v -0.000005 0.000000 -10.000000
vt 0.625000 0.000000
vt 0.375000 0.250000
vt 0.375000 0.000000
vt 0.625000 0.416667
vt 0.375000 0.500000
vt 0.375000 0.416667
vt 0.625000 0.500000
vt 0.375000 0.750000
vt 0.625000 0.916667
vt 0.375000 1.000000
vt 0.375000 0.916667
vt 0.291667 0.750000
vt 0.291667 0.500000
vt 0.791667 0.666667
vt 0.791667 0.583333
vt 0.875000 0.500000
vt 0.708333 0.666667
vt 0.708333 0.750000
vt 0.625000 0.750000
vt 0.208333 0.500000
vt 0.125000 0.750000
vt 0.125000 0.500000
vt 0.208333 0.750000
vt 0.375000 0.833333
vt 0.625000 0.833333
vt 0.625000 0.250000
vt 0.375000 0.333333
vt 0.625000 0.333333
vt 0.791667 0.500000
vt 0.708333 0.583333
vt 0.708333 0.500000
vt 0.791667 0.666667
vt 0.791667 0.583333
vt 0.708333 0.666667
vt 0.708333 0.583333
vt 0.625000 0.000000
vt 0.375000 0.250000
vt 0.375000 0.000000
vt 0.625000 0.250000
vt 0.375000 0.500000
vt 0.625000 0.500000
vt 0.375000 0.750000
vt 0.625000 0.750000
vt 0.375000 1.000000
vt 0.125000 0.750000
vt 0.125000 0.500000
vt 0.875000 0.500000
vt 0.625000 1.000000
vt 0.875000 0.750000
vt 0.791667 0.750000
vt 0.625000 1.000000
vt 0.875000 0.750000
vn -0.0000 0.0000 -1.0000
vn 1.0000 -0.0000 -0.0000
vn 0.0000 0.0000 1.0000
vn -1.0000 0.0000 0.0000
vn 0.0000 -1.0000 0.0000
vn 0.0000 1.0000 0.0000
usemtl None
s off
f 2/1/1 3/2/1 1/3/1
f 12/4/2 7/5/2 9/6/2
f 8/7/3 5/8/3 7/5/3
f 16/9/4 1/10/4 13/11/4
f 7/5/5 14/12/5 9/13/5
f 20/14/6 19/15/6 4/16/6
f 18/17/6 15/18/6 6/19/6
f 20/14/6 15/18/6 18/17/6
f 10/20/5 1/21/5 3/22/5
f 9/13/5 13/23/5 10/20/5
f 6/19/4 14/24/4 5/8/4
f 15/25/4 13/11/4 14/24/4
f 4/26/2 10/27/2 3/2/2
f 11/28/2 9/6/2 10/27/2
f 11/29/6 17/30/6 12/31/6
f 18/17/2 24/32/2 20/14/2
f 23/33/6 22/34/6 21/35/6
f 20/14/3 23/33/3 19/15/3
f 17/30/1 22/34/1 18/17/1
f 19/15/4 21/35/4 17/30/4
f 26/36/4 27/37/4 25/38/4
f 28/39/1 31/40/1 27/37/1
f 32/41/2 29/42/2 31/40/2
f 30/43/3 25/44/3 29/42/3
f 31/40/5 25/45/5 27/46/5
f 28/47/6 30/43/6 32/41/6
f 2/1/1 4/26/1 3/2/1
f 12/4/2 8/7/2 7/5/2
f 8/7/3 6/19/3 5/8/3
f 16/9/4 2/48/4 1/10/4
f 7/5/5 5/8/5 14/12/5
f 19/15/6 11/29/6 4/16/6
f 4/16/6 2/49/6 20/14/6
f 2/49/6 16/50/6 20/14/6
f 6/19/6 8/7/6 17/30/6
f 8/7/6 12/31/6 17/30/6
f 17/30/6 18/17/6 6/19/6
f 20/14/6 16/50/6 15/18/6
f 10/20/5 13/23/5 1/21/5
f 9/13/5 14/12/5 13/23/5
f 6/19/4 15/25/4 14/24/4
f 15/25/4 16/9/4 13/11/4
f 4/26/2 11/28/2 10/27/2
f 11/28/2 12/4/2 9/6/2
f 11/29/6 19/15/6 17/30/6
f 18/17/2 22/34/2 24/32/2
f 23/33/6 24/32/6 22/34/6
f 20/14/3 24/32/3 23/33/3
f 17/30/1 21/35/1 22/34/1
f 19/15/4 23/33/4 21/35/4
f 26/36/4 28/39/4 27/37/4
f 28/39/1 32/41/1 31/40/1
f 32/41/2 30/43/2 29/42/2
f 30/43/3 26/51/3 25/44/3
f 31/40/5 29/42/5 25/45/5
f 28/47/6 26/52/6 30/43/6
