# Blender v3.1.2 OBJ File: 'gantry.blend'
# www.blender.org
mtllib gantry__base.mtl
v 0.000000 -1.000000 0.250000
v 0.000000 0.000000 0.250000
v 0.000000 -1.000000 0.000000
v 0.000000 0.000000 0.000000
v 10.000000 -1.000000 0.249995
v 10.000000 0.000000 0.249995
v 10.000000 -1.000000 -0.000005
v 10.000000 0.000000 -0.000005
v -0.000007 -1.000000 -10.000000
v -0.000007 0.000000 -10.000000
v -0.000007 -1.000000 -10.250000
v -0.000007 0.000000 -10.250000
v 9.999993 -1.000000 -10.000005
v 9.999993 0.000000 -10.000005
v 9.999993 -1.000000 -10.250005
v 9.999993 0.000000 -10.250005
v 2.499993 -1.000000 -10.250002
v 0.999993 -1.000000 -10.250001
v 0.999993 0.000000 -10.250001
v 2.499994 0.000000 -10.250002
v 0.999994 -1.000000 -10.000001
v 2.499994 -1.000000 -10.000002
v 2.499994 0.000000 -10.000002
v 0.999994 0.000000 -10.000001
v 2.499993 0.000000 -10.187502
v 2.499993 0.000000 -10.062502
v 0.999993 0.000000 -10.187501
v 0.999993 0.000000 -10.062501
v 2.499993 -0.750000 -10.187502
v 2.499993 -0.750000 -10.062502
v 0.999993 -0.750000 -10.187501
v 0.999993 -0.750000 -10.062501
vt 0.625000 0.000000
vt 0.375000 0.250000
vt 0.375000 0.000000
vt 0.625000 0.250000
vt 0.375000 0.500000
vt 0.625000 0.500000
vt 0.375000 0.750000
vt 0.625000 0.750000
vt 0.375000 1.000000
vt 0.125000 0.750000
vt 0.125000 0.500000
vt 0.875000 0.500000
vt 0.625000 0.000000
vt 0.375000 0.250000
vt 0.375000 0.000000
vt 0.625000 0.416667
vt 0.375000 0.500000
vt 0.375000 0.416667
vt 0.625000 0.500000
vt 0.375000 0.750000
vt 0.625000 0.833333
vt 0.375000 0.916667
vt 0.375000 0.833333
vt 0.291667 0.750000
vt 0.291667 0.500000
vt 0.791667 0.666667
vt 0.791667 0.583333
vt 0.875000 0.500000
vt 0.708333 0.666667
vt 0.708333 0.750000
vt 0.625000 0.750000
vt 0.208333 0.500000
vt 0.125000 0.750000
vt 0.125000 0.500000
vt 0.208333 0.750000
vt 0.625000 0.250000
vt 0.375000 0.333333
vt 0.625000 0.333333
vt 0.791667 0.500000
vt 0.708333 0.583333
vt 0.708333 0.500000
vt 0.791667 0.666667
vt 0.791667 0.583333
vt 0.708333 0.666667
vt 0.708333 0.583333
vt 0.625000 0.916667
vt 0.375000 1.000000
vt 0.625000 1.000000
vt 0.875000 0.750000
vt 0.875000 0.750000
vt 0.791667 0.750000
vt 0.625000 1.000000
vn -1.0000 0.0000 0.0000
vn -0.0000 0.0000 -1.0000
vn 1.0000 0.0000 0.0000
vn 0.0000 0.0000 1.0000
vn 0.0000 -1.0000 -0.0000
vn 0.0000 1.0000 0.0000
usemtl None
s off
f 2/1/1 3/2/1 1/3/1
f 4/4/2 7/5/2 3/2/2
f 8/6/3 5/7/3 7/5/3
f 6/8/4 1/9/4 5/7/4
f 7/5/5 1/10/5 3/11/5
f 4/12/6 6/8/6 8/6/6
f 10/13/1 11/14/1 9/15/1
f 20/16/2 15/17/2 17/18/2
f 16/19/3 13/20/3 15/17/3
f 23/21/4 21/22/4 22/23/4
f 15/17/5 22/24/5 17/25/5
f 28/26/6 27/27/6 12/28/6
f 26/29/6 23/30/6 14/31/6
f 28/26/6 23/30/6 26/29/6
f 18/32/5 9/33/5 11/34/5
f 17/25/5 21/35/5 18/32/5
f 12/36/2 18/37/2 11/14/2
f 19/38/2 17/18/2 18/37/2
f 19/39/6 25/40/6 20/41/6
f 26/29/2 32/42/2 28/26/2
f 31/43/6 30/44/6 29/45/6
f 28/26/3 31/43/3 27/27/3
f 25/40/1 30/44/1 26/29/1
f 27/27/4 29/45/4 25/40/4
f 14/31/4 22/23/4 13/20/4
f 24/46/4 9/47/4 21/22/4
f 2/1/1 4/4/1 3/2/1
f 4/4/2 8/6/2 7/5/2
f 8/6/3 6/8/3 5/7/3
f 6/8/4 2/48/4 1/9/4
f 7/5/5 5/7/5 1/10/5
f 4/12/6 2/49/6 6/8/6
f 10/13/1 12/36/1 11/14/1
f 20/16/2 16/19/2 15/17/2
f 16/19/3 14/31/3 13/20/3
f 23/21/4 24/46/4 21/22/4
f 15/17/5 13/20/5 22/24/5
f 27/27/6 19/39/6 12/28/6
f 12/28/6 10/50/6 28/26/6
f 10/50/6 24/51/6 28/26/6
f 14/31/6 16/19/6 25/40/6
f 16/19/6 20/41/6 25/40/6
f 25/40/6 26/29/6 14/31/6
f 28/26/6 24/51/6 23/30/6
f 18/32/5 21/35/5 9/33/5
f 17/25/5 22/24/5 21/35/5
f 12/36/2 19/38/2 18/37/2
f 19/38/2 20/16/2 17/18/2
f 19/39/6 27/27/6 25/40/6
f 26/29/2 30/44/2 32/42/2
f 31/43/6 32/42/6 30/44/6
f 28/26/3 32/42/3 31/43/3
f 25/40/1 29/45/1 30/44/1
f 27/27/4 31/43/4 29/45/4
f 14/31/4 23/21/4 22/23/4
f 24/46/4 10/52/4 9/47/4
