# Blender 3.4.1
# www.blender.org
o person__body
v -0.212751 0.000000 0.212751
v -0.180332 0.278673 0.430332
v -0.430332 0.278673 0.180332
v -0.000000 1.000000 0.250000
v -0.250000 1.000000 0.000000
v -0.212751 0.000000 -0.212751
v -0.430332 0.278673 -0.180332
v -0.180332 0.278673 -0.430332
v -0.000000 1.000000 -0.250000
v 0.212751 0.000000 0.212751
v 0.430332 0.278673 0.180332
v 0.180332 0.278673 0.430332
v 0.250000 1.000000 0.000000
v 0.212751 0.000000 -0.212751
v 0.180332 0.278673 -0.430332
v 0.430332 0.278673 -0.180332
v -0.000000 1.250000 0.250000
v -0.000000 2.000000 0.000000
v 0.250000 1.250000 0.000000
v -0.250000 1.250000 0.000000
v -0.000000 1.250000 -0.250000
vn -0.0000 0.2425 0.9701
vn -0.9701 0.2425 -0.0000
vn 0.9701 0.2425 -0.0000
vn -0.0000 0.2425 -0.9701
vn -0.6400 -0.4252 0.6400
vn -0.6400 -0.4252 -0.6400
vn 0.6400 -0.4252 0.6400
vn 0.6400 -0.4252 -0.6400
vn -0.6882 0.2294 0.6882
vn -0.6882 0.2294 -0.6882
vn 0.6882 0.2294 -0.6882
vn 0.6882 0.2294 0.6882
vn -0.7882 -0.6154 -0.0000
vn -0.6667 0.3333 0.6667
vn -0.6667 0.3333 -0.6667
vn -0.0000 -0.6154 -0.7882
vn 0.6667 0.3333 -0.6667
vn 0.7882 -0.6154 -0.0000
vn 0.6667 0.3333 0.6667
vn -0.0000 -0.6154 0.7882
vn -0.0000 -1.0000 -0.0000
vn -0.0000 1.0000 -0.0000
vt 0.196812 0.678188
vt 0.444668 0.926646
vt 0.204917 0.732583
vt 0.458557 0.000000
vt 0.204917 0.750000
vt 0.142417 0.670083
vt 0.125000 0.670083
vt 0.444668 0.073354
vt 0.625000 0.000000
vt 0.625000 0.875000
vt 0.625000 0.125000
vt 0.196812 0.571812
vt 0.142417 0.579917
vt 0.125000 0.579917
vt 0.444668 0.176646
vt 0.204917 0.517417
vt 0.444668 0.323354
vt 0.204917 0.500000
vt 0.625000 0.375000
vt 0.303188 0.678188
vt 0.357583 0.670083
vt 0.444668 0.676646
vt 0.295083 0.732583
vt 0.444668 0.823354
vt 0.295083 0.750000
vt 0.625000 0.625000
vt 0.303188 0.571812
vt 0.295083 0.517417
vt 0.295083 0.500000
vt 0.444668 0.426646
vt 0.357583 0.579917
vt 0.444668 0.573354
vt 0.750000 0.750000
vt 0.750000 0.625000
vt 0.625000 0.625000
vt 0.875000 0.625000
vt 0.750000 0.500000
s 0
f 12/24/1 4/10/1 2/2/1
f 3/8/2 5/11/2 7/15/2
f 16/32/3 13/26/3 11/22/3
f 8/17/4 9/19/4 15/30/4
f 1/1/5 2/3/5 3/6/5
f 6/12/6 7/13/6 8/16/6
f 10/20/7 11/21/7 12/23/7
f 14/27/8 15/28/8 16/31/8
f 20/36/9 17/33/9 18/34/9
f 20/36/10 18/34/10 21/37/10
f 21/37/11 18/34/11 19/35/11
f 19/35/12 18/34/12 17/33/12
f 1/1/13 7/14/13 6/12/13
f 4/9/14 3/8/14 2/4/14
f 8/17/15 5/11/15 9/19/15
f 6/12/16 15/29/16 14/27/16
f 16/32/17 9/19/17 13/26/17
f 14/27/18 11/22/18 10/20/18
f 12/24/19 13/26/19 4/10/19
f 10/20/20 2/5/20 1/1/20
f 14/27/21 1/1/21 6/12/21
f 21/37/21 17/33/21 20/36/21
f 4/10/22 9/19/22 5/11/22
f 1/1/13 3/7/13 7/14/13
f 4/9/14 5/11/14 3/8/14
f 8/17/15 7/15/15 5/11/15
f 6/12/16 8/18/16 15/29/16
f 16/32/17 15/30/17 9/19/17
f 14/27/18 16/32/18 11/22/18
f 12/24/19 11/22/19 13/26/19
f 10/20/20 12/25/20 2/5/20
f 14/27/21 10/20/21 1/1/21
f 21/37/21 19/35/21 17/33/21
f 4/10/22 13/26/22 9/19/22
