# Blender 3.4.1
# www.blender.org
o person__head
v -0.000000 1.000000 0.250000
v -0.250000 1.000000 0.000000
v -0.000000 1.000000 -0.250000
v 0.250000 1.000000 0.000000
v -0.000000 1.250000 0.250000
v 0.250000 1.250000 0.000000
v -0.250000 1.250000 0.000000
v -0.000000 1.250000 -0.250000
vn 0.7071 -0.0000 0.7071
vn -0.7071 -0.0000 -0.7071
vn 0.7071 -0.0000 -0.7071
vn -0.7071 -0.0000 0.7071
vn -0.0000 1.0000 -0.0000
vn -0.0000 -1.0000 -0.0000
vt 0.625000 0.000000
vt 0.625000 0.875000
vt 0.625000 0.125000
vt 0.625000 0.375000
vt 0.625000 0.625000
vt 0.625000 0.000000
vt 0.625000 0.875000
vt 0.625000 0.625000
vt 0.625000 0.125000
vt 0.625000 0.375000
s 0
f 1/2/1 6/8/1 5/7/1
f 3/4/2 7/9/2 8/10/2
f 8/10/3 4/5/3 3/4/3
f 5/6/4 2/3/4 1/1/4
f 5/7/5 8/10/5 7/9/5
f 2/3/6 4/5/6 1/2/6
f 1/2/1 4/5/1 6/8/1
f 3/4/2 2/3/2 7/9/2
f 8/10/3 6/8/3 4/5/3
f 5/6/4 7/9/4 2/3/4
f 5/7/5 6/8/5 8/10/5
f 2/3/6 3/4/6 4/5/6
