# Blender 3.4.1
# www.blender.org
o stage__plane
v -10.000000 -1.000000 10.000000
v -10.000000 0.000000 10.000000
v -10.000000 -1.000000 -30.000000
v -10.000000 0.000000 -30.000000
v 30.000000 -1.000000 10.000000
v 30.000000 0.000000 10.000000
v 30.000000 -1.000000 -30.000000
v 30.000000 0.000000 -30.000000
v -10.000000 -1.000000 -10.250000
v -10.000000 -1.000000 0.250000
v -10.000000 0.000000 0.250000
v -10.000000 0.000000 -10.250000
v 30.000000 -1.000000 0.250000
v 30.000000 -1.000000 -10.250000
v 30.000000 0.000000 -10.250000
v 30.000000 0.000000 0.250000
v -1.000000 0.000000 0.250000
v -1.000000 0.000000 -10.250000
v -1.000000 -1.000000 10.000000
v -1.000000 0.000000 -30.000000
v -1.000000 -1.000000 0.250000
v -1.000000 -1.000000 -10.250000
v -1.000001 0.000000 10.000000
v -1.000001 -1.000000 -30.000000
v -0.250000 -1.000000 -30.000000
v -0.250000 0.000000 10.000000
v -0.250000 0.000000 -30.000000
v -0.250000 -1.000000 10.000000
v -0.250000 -1.000000 -10.250000
v -0.250000 -1.000000 0.250000
v -0.250000 0.000000 -10.250000
v -0.250000 0.000000 0.250000
v 11.000000 -1.000000 0.250000
v 11.000000 -1.000000 -10.250000
v 11.000000 0.000000 10.000000
v 11.000000 -1.000000 -30.000000
v 10.250000 0.000000 -30.000000
v 10.250000 -1.000000 10.000000
v 10.250000 -1.000000 -30.000000
v 10.250000 0.000000 10.000000
v 10.250000 0.000000 -10.250000
v 10.250000 0.000000 0.250000
v 10.250000 -1.000000 -10.250000
v 10.250000 -1.000000 0.250000
v 11.000000 0.000000 0.250000
v 11.000000 0.000000 -10.250000
v 11.000000 -1.000000 10.000000
v 11.000000 0.000000 -30.000000
v -1.000000 0.000000 0.000000
v -0.999998 0.000000 -10.000000
v -0.999998 -1.000000 -10.000000
v -1.000000 -1.000000 0.000000
v 11.000000 -1.000000 0.000000
v 11.000003 -1.000000 -10.000000
v -9.999997 -1.000000 -10.000000
v -10.000000 -1.000000 0.000000
v -10.000000 0.000000 0.000000
v -9.999997 0.000000 -10.000000
v 11.000003 0.000000 -10.000000
v 11.000000 0.000000 0.000000
v 30.000000 -1.000000 0.000000
v 30.000004 -1.000000 -10.000000
v 30.000004 0.000000 -10.000000
v 30.000000 0.000000 0.000000
v -0.249997 -1.000000 -10.000000
v -0.250000 -1.000000 0.000000
v -0.249997 0.000000 -10.000000
v -0.250000 0.000000 0.000000
v 10.250003 0.000000 -10.000000
v 10.250000 0.000000 0.000000
v 10.250003 -1.000000 -10.000000
v 10.250000 -1.000000 0.000000
v -1.000000 0.000000 -4.000000
v -0.999999 0.000000 -6.000000
v -0.999999 -1.000000 -6.000000
v -1.000000 -1.000000 -4.000000
v 11.000001 -1.000000 -4.000000
v 11.000002 -1.000000 -6.000000
v -9.999998 -1.000000 -6.000000
v -9.999999 -1.000000 -4.000000
v -9.999999 0.000000 -4.000000
v -9.999998 0.000000 -6.000000
v 11.000002 0.000000 -6.000000
v 11.000001 0.000000 -4.000000
v 30.000002 -1.000000 -4.000000
v 30.000004 -1.000000 -6.000000
v 30.000002 0.000000 -6.000000
v 30.000000 0.000000 -4.000000
v -0.249998 -1.000000 -6.000000
v -0.249999 -1.000000 -4.000000
v -0.249998 0.000000 -6.000000
v -0.249999 0.000000 -4.000000
v 10.250002 0.000000 -6.000000
v 10.250001 0.000000 -4.000000
v 10.250002 -1.000000 -6.000000
v 10.250001 -1.000000 -4.000000
v 6.000000 -1.000000 -30.000000
v 4.000000 -1.000000 -30.000000
v 6.000000 0.000000 10.000000
v 4.000000 0.000000 10.000000
v 6.000000 -1.000000 -10.250000
v 4.000000 -1.000000 -10.250000
v 6.000000 -1.000000 0.250000
v 4.000000 -1.000000 0.250000
v 4.000000 0.000000 -30.000000
v 6.000000 0.000000 -30.000000
v 4.000000 -1.000000 10.000000
v 6.000000 -1.000000 10.000000
v 4.000000 0.000000 -10.250000
v 6.000000 0.000000 -10.250000
v 4.000000 0.000000 0.250000
v 6.000000 0.000000 0.250000
v -1.000000 0.000000 -11.000000
v -1.000001 -1.000000 -11.000000
v -10.000000 -1.000000 -11.000000
v -10.000000 0.000000 -11.000000
v 11.000000 0.000000 -11.000000
v 30.000000 -1.000000 -11.000000
v 30.000000 0.000000 -11.000000
v 11.000000 -1.000000 -11.000000
v -0.250000 0.000000 -11.000000
v -0.250000 -1.000000 -11.000000
v 10.250000 -1.000000 -11.000000
v 10.250000 0.000000 -11.000000
v 6.000000 0.000000 -11.000000
v 4.000000 0.000000 -11.000000
v 6.000000 -1.000000 -11.000000
v 4.000000 -1.000000 -11.000000
v -10.000000 -1.000000 1.000000
v 30.000000 0.000000 1.000000
v -1.000001 0.000000 1.000000
v -1.000000 -1.000000 1.000000
v 11.000000 -1.000000 1.000000
v -10.000000 0.000000 1.000000
v 30.000000 -1.000000 1.000000
v 11.000000 0.000000 1.000000
v -0.250000 -1.000000 1.000000
v -0.250000 0.000000 1.000000
v 10.250000 0.000000 1.000000
v 10.250000 -1.000000 1.000000
v 6.000000 -1.000000 1.000000
v 4.000000 -1.000000 1.000000
v 4.000000 0.000000 1.000000
v 6.000000 0.000000 1.000000
vn -0.0000 -0.0000 -1.0000
vn 1.0000 -0.0000 -0.0000
vn -0.0000 -0.0000 1.0000
vn -0.0000 -1.0000 -0.0000
vn -0.0000 1.0000 -0.0000
vn -1.0000 -0.0000 -0.0000
vt 0.375000 0.000000
vt 0.375000 1.000000
vt 0.125000 0.750000
vt 0.625000 1.000000
vt 0.875000 0.750000
vt 0.625000 0.000000
vt 0.125000 0.500000
vt 0.375000 0.250000
vt 0.625000 0.250000
vt 0.875000 0.500000
vt 0.375000 0.750000
vt 0.625000 0.750000
vt 0.375000 0.500000
vt 0.625000 0.500000
vt 0.375000 0.125000
vt 0.125000 0.625000
vt 0.125000 0.687500
vt 0.375000 0.062500
vt 0.625000 0.062500
vt 0.875000 0.687500
vt 0.875000 0.625000
vt 0.625000 0.125000
vt 0.375000 0.687500
vt 0.375000 0.625000
vt 0.625000 0.625000
vt 0.625000 0.687500
vt 0.854167 0.687500
vt 0.854167 0.625000
vt 0.375000 0.979167
vt 0.145833 0.750000
vt 0.625000 0.270833
vt 0.854167 0.500000
vt 0.145833 0.687500
vt 0.145833 0.625000
vt 0.625000 0.979167
vt 0.854167 0.750000
vt 0.375000 0.270833
vt 0.145833 0.500000
vt 0.375000 0.291667
vt 0.166667 0.500000
vt 0.625000 0.958333
vt 0.833333 0.750000
vt 0.625000 0.291667
vt 0.833333 0.500000
vt 0.375000 0.958333
vt 0.166667 0.750000
vt 0.166667 0.625000
vt 0.166667 0.687500
vt 0.833333 0.625000
vt 0.833333 0.687500
vt 0.354167 0.687500
vt 0.354167 0.625000
vt 0.625000 0.770833
vt 0.645833 0.750000
vt 0.375000 0.479167
vt 0.354167 0.500000
vt 0.625000 0.458333
vt 0.666667 0.500000
vt 0.375000 0.791667
vt 0.333333 0.750000
vt 0.333333 0.500000
vt 0.375000 0.458333
vt 0.625000 0.791667
vt 0.666667 0.750000
vt 0.666667 0.625000
vt 0.666667 0.687500
vt 0.333333 0.625000
vt 0.333333 0.687500
vt 0.645833 0.687500
vt 0.645833 0.625000
vt 0.375000 0.770833
vt 0.354167 0.750000
vt 0.625000 0.479167
vt 0.645833 0.500000
vt 0.854167 0.666667
vt 0.854167 0.645833
vt 0.145833 0.645833
vt 0.145833 0.666667
vt 0.354167 0.666667
vt 0.354167 0.645833
vt 0.375000 0.104167
vt 0.125000 0.645833
vt 0.125000 0.666667
vt 0.375000 0.083333
vt 0.875000 0.666667
vt 0.625000 0.083333
vt 0.875000 0.645833
vt 0.625000 0.104167
vt 0.645833 0.645833
vt 0.645833 0.666667
vt 0.375000 0.666667
vt 0.375000 0.645833
vt 0.625000 0.645833
vt 0.625000 0.666667
vt 0.166667 0.645833
vt 0.166667 0.666667
vt 0.833333 0.645833
vt 0.833333 0.666667
vt 0.666667 0.645833
vt 0.666667 0.666667
vt 0.333333 0.645833
vt 0.333333 0.666667
vt 0.854167 0.659722
vt 0.854167 0.652778
vt 0.145833 0.652778
vt 0.145833 0.659722
vt 0.354167 0.659722
vt 0.354167 0.652778
vt 0.375000 0.097222
vt 0.125000 0.652778
vt 0.125000 0.659722
vt 0.375000 0.090278
vt 0.625000 0.090278
vt 0.875000 0.659722
vt 0.625000 0.097222
vt 0.875000 0.652778
vt 0.645833 0.652778
vt 0.645833 0.659722
vt 0.375000 0.659722
vt 0.375000 0.652778
vt 0.625000 0.652778
vt 0.625000 0.659722
vt 0.166667 0.652778
vt 0.166667 0.659722
vt 0.833333 0.652778
vt 0.833333 0.659722
vt 0.666667 0.652778
vt 0.666667 0.659722
vt 0.333333 0.652778
vt 0.333333 0.659722
vt 0.375000 0.402778
vt 0.277778 0.500000
vt 0.375000 0.347222
vt 0.222222 0.500000
vt 0.625000 0.847222
vt 0.722222 0.750000
vt 0.625000 0.902778
vt 0.777778 0.750000
vt 0.277778 0.625000
vt 0.222222 0.625000
vt 0.277778 0.687500
vt 0.222222 0.687500
vt 0.625000 0.347222
vt 0.777778 0.500000
vt 0.625000 0.402778
vt 0.722222 0.500000
vt 0.375000 0.902778
vt 0.222222 0.750000
vt 0.375000 0.847222
vt 0.277778 0.750000
vt 0.777778 0.625000
vt 0.722222 0.625000
vt 0.777778 0.687500
vt 0.722222 0.687500
vt 0.854167 0.562500
vt 0.145833 0.562500
vt 0.125000 0.562500
vt 0.375000 0.187500
vt 0.625000 0.187500
vt 0.875000 0.562500
vt 0.645833 0.562500
vt 0.375000 0.562500
vt 0.625000 0.562500
vt 0.354167 0.562500
vt 0.833333 0.562500
vt 0.166667 0.562500
vt 0.333333 0.562500
vt 0.666667 0.562500
vt 0.722222 0.562500
vt 0.777778 0.562500
vt 0.277778 0.562500
vt 0.222222 0.562500
vt 0.125000 0.718750
vt 0.375000 0.031250
vt 0.625000 0.718750
vt 0.854167 0.718750
vt 0.145833 0.718750
vt 0.354167 0.718750
vt 0.625000 0.031250
vt 0.875000 0.718750
vt 0.375000 0.718750
vt 0.645833 0.718750
vt 0.166667 0.718750
vt 0.833333 0.718750
vt 0.666667 0.718750
vt 0.333333 0.718750
vt 0.277778 0.718750
vt 0.222222 0.718750
vt 0.777778 0.718750
vt 0.722222 0.718750
s 0
f 48/73/1 7/13/1 36/55/1
f 130/175/2 5/11/2 135/181/2
f 23/35/3 1/2/3 19/29/3
f 135/181/4 47/72/4 133/178/4
f 134/180/5 23/36/5 131/176/5
f 99/136/5 139/185/5 144/190/5
f 107/148/4 137/183/4 142/188/4
f 26/41/3 107/147/3 100/137/3
f 37/57/1 97/131/1 106/145/1
f 102/140/4 122/166/4 128/172/4
f 121/165/5 109/151/5 126/170/5
f 116/160/5 18/28/5 113/155/5
f 118/162/4 34/52/4 120/164/4
f 6/12/3 47/71/3 5/11/3
f 119/163/2 14/24/2 118/162/2
f 136/182/5 6/12/5 130/175/5
f 116/159/6 3/8/6 115/158/6
f 37/57/1 36/55/1 39/62/1
f 134/179/6 10/18/6 129/174/6
f 4/9/1 24/37/1 3/8/1
f 109/151/3 29/47/3 102/140/3
f 30/48/1 111/153/1 104/142/1
f 26/41/3 19/29/3 28/45/3
f 51/77/2 18/28/2 50/76/2
f 131/176/5 26/42/5 138/184/5
f 12/22/6 55/81/6 58/88/6
f 11/20/5 49/75/5 57/85/5
f 16/26/2 61/91/2 64/94/2
f 114/156/4 9/16/4 115/157/4
f 49/75/3 66/96/3 68/98/3
f 117/161/5 15/25/5 119/163/5
f 33/51/6 60/90/6 53/79/6
f 13/23/4 53/79/4 61/91/4
f 54/80/1 69/99/1 59/89/1
f 133/178/4 38/60/4 140/186/4
f 113/155/5 31/49/5 121/165/5
f 34/52/6 59/89/6 46/70/6
f 60/90/5 16/26/5 64/94/5
f 122/166/4 22/34/4 114/156/4
f 20/31/1 25/39/1 24/37/1
f 137/183/4 19/30/4 132/177/4
f 32/50/1 21/33/1 17/27/1
f 132/177/4 1/3/4 129/173/4
f 52/78/4 10/17/4 56/83/4
f 120/164/4 43/67/4 123/167/4
f 124/168/5 46/70/5 117/161/5
f 35/53/3 38/59/3 47/71/3
f 139/185/5 35/54/5 136/182/5
f 22/34/4 55/82/4 9/16/4
f 80/111/4 52/78/4 56/83/4
f 53/79/3 70/100/3 72/102/3
f 94/128/5 60/90/5 84/118/5
f 15/25/5 59/89/5 63/93/5
f 84/118/5 64/94/5 88/122/5
f 65/95/1 50/76/1 67/97/1
f 69/99/6 95/129/6 93/127/6
f 90/124/4 52/78/4 76/106/4
f 14/24/4 54/80/4 34/52/4
f 61/91/4 77/107/4 85/119/4
f 44/68/1 45/69/1 33/51/1
f 49/75/5 92/126/5 73/103/5
f 43/67/3 46/70/3 41/65/3
f 53/79/4 96/130/4 77/107/4
f 63/93/2 14/24/2 15/25/2
f 88/122/2 61/91/2 85/119/2
f 58/87/5 18/28/5 12/21/5
f 57/85/5 73/103/5 81/114/5
f 57/86/6 10/18/6 11/19/6
f 82/115/6 55/81/6 79/109/6
f 17/27/2 52/78/2 49/75/2
f 89/123/2 67/97/2 91/125/2
f 22/34/3 31/49/3 18/28/3
f 66/96/2 92/126/2 68/98/2
f 81/113/6 56/84/6 57/86/6
f 81/113/6 79/109/6 80/112/6
f 82/116/5 50/76/5 58/87/5
f 81/114/5 74/104/5 82/116/5
f 63/93/2 86/120/2 62/92/2
f 88/122/2 86/120/2 87/121/2
f 78/108/4 71/101/4 54/80/4
f 74/104/5 67/97/5 50/76/5
f 86/120/4 54/80/4 62/92/4
f 85/119/4 78/108/4 86/120/4
f 51/77/4 89/123/4 75/105/4
f 94/128/6 72/102/6 70/100/6
f 59/89/5 87/121/5 63/93/5
f 83/117/5 88/122/5 87/121/5
f 69/99/5 83/117/5 59/89/5
f 55/82/4 75/105/4 79/110/4
f 79/110/4 76/106/4 80/111/4
f 103/141/1 42/66/1 44/68/1
f 41/65/3 101/139/3 43/67/3
f 125/169/5 41/65/5 124/168/5
f 43/67/4 127/171/4 123/167/4
f 105/143/1 25/39/1 27/43/1
f 105/143/1 97/131/1 98/133/1
f 99/135/3 38/59/3 40/63/3
f 99/135/3 107/147/3 108/149/3
f 38/60/4 141/187/4 140/186/4
f 108/150/4 142/188/4 141/187/4
f 138/184/5 100/138/5 143/189/5
f 100/138/5 144/190/5 143/189/5
f 127/171/4 98/134/4 97/132/4
f 123/167/4 97/132/4 39/61/4
f 105/144/5 125/169/5 106/146/5
f 106/146/5 124/168/5 37/58/5
f 37/58/5 117/161/5 48/74/5
f 36/56/4 123/167/4 39/61/4
f 25/40/4 114/156/4 24/38/4
f 20/32/5 121/165/5 27/44/5
f 48/74/5 119/163/5 8/14/5
f 24/38/4 115/157/4 3/7/4
f 12/22/6 115/158/6 9/15/6
f 8/14/2 118/162/2 7/13/2
f 7/13/4 120/164/4 36/56/4
f 4/10/5 113/155/5 20/32/5
f 27/44/5 126/170/5 105/144/5
f 98/134/4 122/166/4 25/40/4
f 32/50/5 143/189/5 111/153/5
f 140/186/4 103/141/4 44/68/4
f 42/66/5 136/182/5 45/69/5
f 21/33/4 129/173/4 10/17/4
f 30/48/4 132/177/4 21/33/4
f 33/51/4 140/186/4 44/68/4
f 17/27/5 138/184/5 32/50/5
f 2/6/6 129/174/6 1/1/6
f 45/69/5 130/175/5 16/26/5
f 142/188/4 30/48/4 104/142/4
f 144/190/5 42/66/5 112/154/5
f 11/20/5 131/176/5 17/27/5
f 13/23/4 133/178/4 33/51/4
f 16/26/2 135/181/2 13/23/2
f 76/106/1 92/126/1 90/124/1
f 73/103/2 75/105/2 74/104/2
f 91/125/3 75/105/3 89/123/3
f 128/172/2 109/151/2 102/140/2
f 125/169/3 128/172/3 127/171/3
f 125/169/6 101/139/6 110/152/6
f 83/117/3 95/129/3 78/108/3
f 84/118/6 78/108/6 77/107/6
f 96/130/1 84/118/1 77/107/1
f 103/141/6 144/190/6 112/154/6
f 144/190/1 142/188/1 143/189/1
f 111/153/2 142/188/2 104/142/2
f 48/73/1 8/14/1 7/13/1
f 130/175/2 6/12/2 5/11/2
f 23/35/3 2/4/3 1/2/3
f 135/181/4 5/11/4 47/72/4
f 134/180/5 2/5/5 23/36/5
f 99/136/5 40/64/5 139/185/5
f 107/148/4 28/46/4 137/183/4
f 26/41/3 28/45/3 107/147/3
f 37/57/1 39/62/1 97/131/1
f 102/140/4 29/47/4 122/166/4
f 121/165/5 31/49/5 109/151/5
f 116/160/5 12/21/5 18/28/5
f 118/162/4 14/24/4 34/52/4
f 6/12/3 35/53/3 47/71/3
f 119/163/2 15/25/2 14/24/2
f 136/182/5 35/54/5 6/12/5
f 116/159/6 4/9/6 3/8/6
f 37/57/1 48/73/1 36/55/1
f 134/179/6 11/19/6 10/18/6
f 4/9/1 20/31/1 24/37/1
f 109/151/3 31/49/3 29/47/3
f 30/48/1 32/50/1 111/153/1
f 26/41/3 23/35/3 19/29/3
f 51/77/2 22/34/2 18/28/2
f 131/176/5 23/36/5 26/42/5
f 12/22/6 9/15/6 55/81/6
f 11/20/5 17/27/5 49/75/5
f 16/26/2 13/23/2 61/91/2
f 114/156/4 22/34/4 9/16/4
f 49/75/3 52/78/3 66/96/3
f 117/161/5 46/70/5 15/25/5
f 33/51/6 45/69/6 60/90/6
f 13/23/4 33/51/4 53/79/4
f 54/80/1 71/101/1 69/99/1
f 133/178/4 47/72/4 38/60/4
f 113/155/5 18/28/5 31/49/5
f 34/52/6 54/80/6 59/89/6
f 60/90/5 45/69/5 16/26/5
f 122/166/4 29/47/4 22/34/4
f 20/31/1 27/43/1 25/39/1
f 137/183/4 28/46/4 19/30/4
f 32/50/1 30/48/1 21/33/1
f 132/177/4 19/30/4 1/3/4
f 52/78/4 21/33/4 10/17/4
f 120/164/4 34/52/4 43/67/4
f 124/168/5 41/65/5 46/70/5
f 35/53/3 40/63/3 38/59/3
f 139/185/5 40/64/5 35/54/5
f 22/34/4 51/77/4 55/82/4
f 80/111/4 76/106/4 52/78/4
f 53/79/3 60/90/3 70/100/3
f 94/128/5 70/100/5 60/90/5
f 15/25/5 46/70/5 59/89/5
f 84/118/5 60/90/5 64/94/5
f 65/95/1 51/77/1 50/76/1
f 69/99/6 71/101/6 95/129/6
f 90/124/4 66/96/4 52/78/4
f 14/24/4 62/92/4 54/80/4
f 61/91/4 53/79/4 77/107/4
f 44/68/1 42/66/1 45/69/1
f 49/75/5 68/98/5 92/126/5
f 43/67/3 34/52/3 46/70/3
f 53/79/4 72/102/4 96/130/4
f 63/93/2 62/92/2 14/24/2
f 88/122/2 64/94/2 61/91/2
f 58/87/5 50/76/5 18/28/5
f 57/85/5 49/75/5 73/103/5
f 57/86/6 56/84/6 10/18/6
f 82/115/6 58/88/6 55/81/6
f 17/27/2 21/33/2 52/78/2
f 89/123/2 65/95/2 67/97/2
f 22/34/3 29/47/3 31/49/3
f 66/96/2 90/124/2 92/126/2
f 81/113/6 80/112/6 56/84/6
f 81/113/6 82/115/6 79/109/6
f 82/116/5 74/104/5 50/76/5
f 81/114/5 73/103/5 74/104/5
f 63/93/2 87/121/2 86/120/2
f 88/122/2 85/119/2 86/120/2
f 78/108/4 95/129/4 71/101/4
f 74/104/5 91/125/5 67/97/5
f 86/120/4 78/108/4 54/80/4
f 85/119/4 77/107/4 78/108/4
f 51/77/4 65/95/4 89/123/4
f 94/128/6 96/130/6 72/102/6
f 59/89/5 83/117/5 87/121/5
f 83/117/5 84/118/5 88/122/5
f 69/99/5 93/127/5 83/117/5
f 55/82/4 51/77/4 75/105/4
f 79/110/4 75/105/4 76/106/4
f 103/141/1 112/154/1 42/66/1
f 41/65/3 110/152/3 101/139/3
f 125/169/5 110/152/5 41/65/5
f 43/67/4 101/139/4 127/171/4
f 105/143/1 98/133/1 25/39/1
f 105/143/1 106/145/1 97/131/1
f 99/135/3 108/149/3 38/59/3
f 99/135/3 100/137/3 107/147/3
f 38/60/4 108/150/4 141/187/4
f 108/150/4 107/148/4 142/188/4
f 138/184/5 26/42/5 100/138/5
f 100/138/5 99/136/5 144/190/5
f 127/171/4 128/172/4 98/134/4
f 123/167/4 127/171/4 97/132/4
f 105/144/5 126/170/5 125/169/5
f 106/146/5 125/169/5 124/168/5
f 37/58/5 124/168/5 117/161/5
f 36/56/4 120/164/4 123/167/4
f 25/40/4 122/166/4 114/156/4
f 20/32/5 113/155/5 121/165/5
f 48/74/5 117/161/5 119/163/5
f 24/38/4 114/156/4 115/157/4
f 12/22/6 116/159/6 115/158/6
f 8/14/2 119/163/2 118/162/2
f 7/13/4 118/162/4 120/164/4
f 4/10/5 116/160/5 113/155/5
f 27/44/5 121/165/5 126/170/5
f 98/134/4 128/172/4 122/166/4
f 32/50/5 138/184/5 143/189/5
f 140/186/4 141/187/4 103/141/4
f 42/66/5 139/185/5 136/182/5
f 21/33/4 132/177/4 129/173/4
f 30/48/4 137/183/4 132/177/4
f 33/51/4 133/178/4 140/186/4
f 17/27/5 131/176/5 138/184/5
f 2/6/6 134/179/6 129/174/6
f 45/69/5 136/182/5 130/175/5
f 142/188/4 137/183/4 30/48/4
f 144/190/5 139/185/5 42/66/5
f 11/20/5 134/180/5 131/176/5
f 13/23/4 135/181/4 133/178/4
f 16/26/2 130/175/2 135/181/2
f 76/106/1 73/103/1 92/126/1
f 73/103/2 76/106/2 75/105/2
f 91/125/3 74/104/3 75/105/3
f 128/172/2 126/170/2 109/151/2
f 125/169/3 126/170/3 128/172/3
f 125/169/6 127/171/6 101/139/6
f 83/117/3 93/127/3 95/129/3
f 84/118/6 83/117/6 78/108/6
f 96/130/1 94/128/1 84/118/1
f 103/141/6 141/187/6 144/190/6
f 144/190/1 141/187/1 142/188/1
f 111/153/2 143/189/2 142/188/2
