# Blender 3.4.1
# www.blender.org
o stage
v -10.000000 -1.000000 10.000000
v -10.000000 0.000000 10.000000
v -10.000000 -1.000000 -30.000000
v -10.000000 0.000000 -30.000000
v 30.000000 -1.000000 10.000000
v 30.000000 0.000000 10.000000
v 30.000000 -1.000000 -30.000000
v 30.000000 0.000000 -30.000000
v 9.999998 -1.000000 -30.000000
v -0.000000 -1.000000 -30.000000
v 0.000000 0.000000 -30.000000
v 10.000000 0.000000 -30.000000
v 0.000000 -1.000000 10.000000
v 10.000000 -1.000000 10.000000
v 9.999998 0.000000 10.000000
v -0.000000 0.000000 10.000000
v -10.000000 -1.000000 -10.250000
v -10.000000 -1.000000 0.250000
v -10.000000 0.000000 0.250000
v -10.000000 0.000000 -10.250000
v 30.000000 -1.000000 0.250000
v 30.000000 -1.000000 -10.250000
v 30.000000 0.000000 -10.250000
v 30.000000 0.000000 0.250000
v 9.999999 0.000000 -10.250000
v 9.999998 0.000000 0.250000
v 0.000000 0.000000 -10.250000
v -0.000000 0.000000 0.250000
v 0.000000 -1.000000 -10.250000
v 0.000000 -1.000000 0.250000
v 9.999999 -1.000000 -10.250000
v 10.000000 -1.000000 0.250000
v -10.000000 -1.000000 -10.000000
v -10.000000 -1.000000 0.000000
v -10.000000 0.000000 0.000000
v -10.000000 0.000000 -10.000000
v 30.000000 -1.000000 0.000000
v 30.000000 -1.000000 -10.000000
v 30.000000 0.000000 -10.000000
v 30.000000 0.000000 0.000000
v 9.999999 0.000000 -10.000000
v 9.999998 0.000000 0.000000
v -0.000000 0.000000 -10.000000
v -0.000000 0.000000 0.000000
v 0.000000 -1.000000 -10.000000
v 0.000000 -1.000000 0.000000
v 9.999999 -1.000000 -10.000000
v 10.000000 -1.000000 0.000000
v -0.250000 -1.000000 -30.000000
v -0.250000 0.000000 10.000000
v -0.250000 0.000000 -30.000000
v -0.250000 -1.000000 10.000000
v -0.250000 -1.000000 -10.250000
v -0.250000 -1.000000 0.250000
v -0.250000 0.000000 -10.250000
v -0.250000 0.000000 0.250000
v -0.250000 0.000000 -10.000000
v -0.250000 0.000000 0.000000
v -0.250000 -1.000000 -10.000000
v -0.250000 -1.000000 0.000000
v 10.250000 0.000000 -30.000000
v 10.250000 -1.000000 10.000000
v 10.250000 -1.000000 -30.000000
v 10.250000 0.000000 10.000000
v 10.250000 0.000000 -10.250000
v 10.250000 0.000000 0.250000
v 10.250000 -1.000000 -10.250000
v 10.250000 -1.000000 0.250000
v 10.250000 -1.000000 -10.000000
v 10.250000 -1.000000 0.000000
v 10.250000 0.000000 -10.000000
v 10.250000 0.000000 0.000000
vn -0.0000 -0.0000 -1.0000
vn 1.0000 -0.0000 -0.0000
vn -0.0000 -0.0000 1.0000
vn -0.0000 -1.0000 -0.0000
vn -0.0000 1.0000 -0.0000
vn -1.0000 -0.0000 -0.0000
vt 0.375000 0.000000
vt 0.375000 1.000000
vt 0.125000 0.750000
vt 0.625000 1.000000
vt 0.875000 0.750000
vt 0.625000 0.000000
vt 0.125000 0.500000
vt 0.375000 0.250000
vt 0.875000 0.500000
vt 0.625000 0.250000
vt 0.375000 0.750000
vt 0.625000 0.750000
vt 0.375000 0.500000
vt 0.625000 0.500000
vt 0.375000 0.416667
vt 0.291667 0.500000
vt 0.375000 0.333333
vt 0.208333 0.500000
vt 0.625000 0.333333
vt 0.791667 0.500000
vt 0.708333 0.500000
vt 0.625000 0.416667
vt 0.208333 0.750000
vt 0.375000 0.916667
vt 0.375000 0.833333
vt 0.291667 0.750000
vt 0.708333 0.750000
vt 0.625000 0.833333
vt 0.791667 0.750000
vt 0.625000 0.916667
vt 0.375000 0.125000
vt 0.125000 0.625000
vt 0.375000 0.062500
vt 0.125000 0.687500
vt 0.875000 0.687500
vt 0.625000 0.062500
vt 0.625000 0.125000
vt 0.875000 0.625000
vt 0.375000 0.687500
vt 0.375000 0.625000
vt 0.625000 0.625000
vt 0.625000 0.687500
vt 0.708333 0.625000
vt 0.708333 0.687500
vt 0.791667 0.625000
vt 0.791667 0.687500
vt 0.208333 0.625000
vt 0.208333 0.687500
vt 0.291667 0.625000
vt 0.291667 0.687500
vt 0.375000 0.104167
vt 0.125000 0.645833
vt 0.375000 0.083333
vt 0.125000 0.666667
vt 0.625000 0.083333
vt 0.875000 0.666667
vt 0.625000 0.104167
vt 0.875000 0.645833
vt 0.375000 0.666667
vt 0.375000 0.645833
vt 0.625000 0.645833
vt 0.625000 0.666667
vt 0.708333 0.645833
vt 0.708333 0.666667
vt 0.791667 0.645833
vt 0.791667 0.666667
vt 0.208333 0.645833
vt 0.208333 0.666667
vt 0.291667 0.645833
vt 0.291667 0.666667
vt 0.166667 0.500000
vt 0.375000 0.291667
vt 0.833333 0.750000
vt 0.625000 0.958333
vt 0.833333 0.500000
vt 0.625000 0.291667
vt 0.166667 0.750000
vt 0.375000 0.958333
vt 0.166667 0.625000
vt 0.166667 0.687500
vt 0.833333 0.625000
vt 0.833333 0.687500
vt 0.833333 0.645833
vt 0.833333 0.666667
vt 0.166667 0.645833
vt 0.166667 0.666667
vt 0.666667 0.500000
vt 0.625000 0.458333
vt 0.375000 0.791667
vt 0.333333 0.750000
vt 0.333333 0.500000
vt 0.375000 0.458333
vt 0.625000 0.791667
vt 0.666667 0.750000
vt 0.666667 0.625000
vt 0.666667 0.687500
vt 0.333333 0.625000
vt 0.333333 0.687500
vt 0.333333 0.645833
vt 0.333333 0.666667
vt 0.666667 0.645833
vt 0.666667 0.666667
s 0
f 61/88/1 7/13/1 63/92/1
f 24/42/2 5/11/2 21/39/2
f 50/74/3 1/2/3 52/78/3
f 21/39/4 62/90/4 68/98/4
f 19/35/5 50/73/5 56/82/5
f 26/44/5 64/94/5 66/96/5
f 28/46/5 15/27/5 26/44/5
f 30/48/4 52/77/4 54/80/4
f 32/50/4 13/23/4 30/48/4
f 64/93/3 14/25/3 62/89/3
f 15/28/3 13/24/3 14/25/3
f 51/76/1 10/17/1 49/72/1
f 11/19/1 9/15/1 10/17/1
f 10/18/4 53/79/4 49/71/4
f 11/20/5 25/43/5 12/21/5
f 46/68/4 54/80/4 60/86/4
f 12/21/5 65/95/5 61/87/5
f 4/9/5 55/81/5 51/75/5
f 42/64/5 66/96/5 72/102/5
f 7/13/4 67/97/4 63/91/4
f 35/56/5 56/82/5 58/84/5
f 8/14/2 22/40/2 7/13/2
f 37/59/4 68/98/4 70/100/4
f 20/37/6 3/8/6 17/31/6
f 40/62/2 21/39/2 37/59/2
f 2/6/6 18/33/6 1/1/6
f 36/57/6 17/31/6 33/51/6
f 9/16/4 29/47/4 10/18/4
f 25/43/3 29/47/3 31/49/3
f 25/43/6 47/69/6 41/63/6
f 30/48/1 26/44/1 32/50/1
f 45/67/2 27/45/2 43/65/2
f 30/48/2 44/66/2 28/46/2
f 60/86/2 57/83/2 58/84/2
f 42/64/6 32/50/6 26/44/6
f 69/99/6 72/102/6 71/101/6
f 19/36/6 34/53/6 18/33/6
f 35/55/6 33/51/6 34/53/6
f 23/41/2 38/60/2 22/40/2
f 39/61/2 37/59/2 38/60/2
f 22/40/4 69/99/4 67/97/4
f 38/60/4 70/100/4 69/99/4
f 20/38/5 57/83/5 55/81/5
f 36/58/5 58/84/5 57/83/5
f 25/43/5 71/101/5 65/95/5
f 29/47/4 59/85/4 53/79/4
f 72/102/1 48/70/1 42/64/1
f 59/85/4 34/54/4 33/52/4
f 53/79/4 33/52/4 17/32/4
f 44/66/1 60/86/1 58/84/1
f 55/81/5 43/65/5 27/45/5
f 58/84/5 28/46/5 44/66/5
f 51/75/5 27/45/5 11/20/5
f 60/86/4 18/34/4 34/54/4
f 49/71/4 17/32/4 3/7/4
f 4/10/1 49/72/1 3/8/1
f 54/80/4 1/3/4 18/34/4
f 56/82/5 16/29/5 28/46/5
f 16/30/3 52/78/3 13/24/3
f 71/101/5 40/62/5 39/61/5
f 65/95/5 39/61/5 23/41/5
f 47/69/3 71/101/3 41/63/3
f 67/97/4 47/69/4 31/49/4
f 70/100/4 32/50/4 48/70/4
f 63/91/4 31/49/4 9/16/4
f 72/102/5 24/42/5 40/62/5
f 61/87/5 23/41/5 8/14/5
f 6/12/3 62/89/3 5/11/3
f 66/96/5 6/12/5 24/42/5
f 68/98/4 14/26/4 32/50/4
f 12/22/1 63/92/1 9/15/1
f 59/85/3 43/65/3 57/83/3
f 61/88/1 8/14/1 7/13/1
f 24/42/2 6/12/2 5/11/2
f 50/74/3 2/4/3 1/2/3
f 21/39/4 5/11/4 62/90/4
f 19/35/5 2/5/5 50/73/5
f 26/44/5 15/27/5 64/94/5
f 28/46/5 16/29/5 15/27/5
f 30/48/4 13/23/4 52/77/4
f 32/50/4 14/26/4 13/23/4
f 64/93/3 15/28/3 14/25/3
f 15/28/3 16/30/3 13/24/3
f 51/76/1 11/19/1 10/17/1
f 11/19/1 12/22/1 9/15/1
f 10/18/4 29/47/4 53/79/4
f 11/20/5 27/45/5 25/43/5
f 46/68/4 30/48/4 54/80/4
f 12/21/5 25/43/5 65/95/5
f 4/9/5 20/38/5 55/81/5
f 42/64/5 26/44/5 66/96/5
f 7/13/4 22/40/4 67/97/4
f 35/56/5 19/35/5 56/82/5
f 8/14/2 23/41/2 22/40/2
f 37/59/4 21/39/4 68/98/4
f 20/37/6 4/10/6 3/8/6
f 40/62/2 24/42/2 21/39/2
f 2/6/6 19/36/6 18/33/6
f 36/57/6 20/37/6 17/31/6
f 9/16/4 31/49/4 29/47/4
f 25/43/3 27/45/3 29/47/3
f 25/43/6 31/49/6 47/69/6
f 30/48/1 28/46/1 26/44/1
f 45/67/2 29/47/2 27/45/2
f 30/48/2 46/68/2 44/66/2
f 60/86/2 59/85/2 57/83/2
f 42/64/6 48/70/6 32/50/6
f 69/99/6 70/100/6 72/102/6
f 19/36/6 35/55/6 34/53/6
f 35/55/6 36/57/6 33/51/6
f 23/41/2 39/61/2 38/60/2
f 39/61/2 40/62/2 37/59/2
f 22/40/4 38/60/4 69/99/4
f 38/60/4 37/59/4 70/100/4
f 20/38/5 36/58/5 57/83/5
f 36/58/5 35/56/5 58/84/5
f 25/43/5 41/63/5 71/101/5
f 29/47/4 45/67/4 59/85/4
f 72/102/1 70/100/1 48/70/1
f 59/85/4 60/86/4 34/54/4
f 53/79/4 59/85/4 33/52/4
f 44/66/1 46/68/1 60/86/1
f 55/81/5 57/83/5 43/65/5
f 58/84/5 56/82/5 28/46/5
f 51/75/5 55/81/5 27/45/5
f 60/86/4 54/80/4 18/34/4
f 49/71/4 53/79/4 17/32/4
f 4/10/1 51/76/1 49/72/1
f 54/80/4 52/77/4 1/3/4
f 56/82/5 50/73/5 16/29/5
f 16/30/3 50/74/3 52/78/3
f 71/101/5 72/102/5 40/62/5
f 65/95/5 71/101/5 39/61/5
f 47/69/3 69/99/3 71/101/3
f 67/97/4 69/99/4 47/69/4
f 70/100/4 68/98/4 32/50/4
f 63/91/4 67/97/4 31/49/4
f 72/102/5 66/96/5 24/42/5
f 61/87/5 65/95/5 23/41/5
f 6/12/3 64/93/3 62/89/3
f 66/96/5 64/94/5 6/12/5
f 68/98/4 62/90/4 14/26/4
f 12/22/1 61/88/1 63/92/1
f 59/85/3 45/67/3 43/65/3
